<?xml version="1.0" encoding="utf-8"?>
<svg xmlns="http://www.w3.org/2000/svg" xmlns:xlink="http://www.w3.org/1999/xlink" width="600" height="400" viewBox="0 0 2400 1600">
<defs>
  <clipPath id="clip040">
    <rect x="0" y="0" width="2400" height="1600"/>
  </clipPath>
</defs>
<path clip-path="url(#clip040)" d="M0 1600 L2400 1600 L2400 0 L0 0  Z" fill="#ffffff" fill-rule="evenodd" fill-opacity="1"/>
<defs>
  <clipPath id="clip041">
    <rect x="480" y="0" width="1681" height="1600"/>
  </clipPath>
</defs>
<path clip-path="url(#clip040)" d="M219.866 1423.18 L2352.76 1423.18 L2352.76 123.472 L219.866 123.472  Z" fill="#ffffff" fill-rule="evenodd" fill-opacity="1"/>
<defs>
  <clipPath id="clip042">
    <rect x="219" y="123" width="2134" height="1301"/>
  </clipPath>
</defs>
<polyline clip-path="url(#clip042)" style="stroke:#000000; stroke-linecap:round; stroke-linejoin:round; stroke-width:2; stroke-opacity:0.1; fill:none" points="270.12,1423.18 270.12,123.472 "/>
<polyline clip-path="url(#clip042)" style="stroke:#000000; stroke-linecap:round; stroke-linejoin:round; stroke-width:2; stroke-opacity:0.1; fill:none" points="775.688,1423.18 775.688,123.472 "/>
<polyline clip-path="url(#clip042)" style="stroke:#000000; stroke-linecap:round; stroke-linejoin:round; stroke-width:2; stroke-opacity:0.1; fill:none" points="1281.26,1423.18 1281.26,123.472 "/>
<polyline clip-path="url(#clip042)" style="stroke:#000000; stroke-linecap:round; stroke-linejoin:round; stroke-width:2; stroke-opacity:0.1; fill:none" points="1786.82,1423.18 1786.82,123.472 "/>
<polyline clip-path="url(#clip042)" style="stroke:#000000; stroke-linecap:round; stroke-linejoin:round; stroke-width:2; stroke-opacity:0.1; fill:none" points="2292.39,1423.18 2292.39,123.472 "/>
<polyline clip-path="url(#clip040)" style="stroke:#000000; stroke-linecap:round; stroke-linejoin:round; stroke-width:4; stroke-opacity:1; fill:none" points="219.866,1423.18 2352.76,1423.18 "/>
<polyline clip-path="url(#clip040)" style="stroke:#000000; stroke-linecap:round; stroke-linejoin:round; stroke-width:4; stroke-opacity:1; fill:none" points="270.12,1423.18 270.12,1404.28 "/>
<polyline clip-path="url(#clip040)" style="stroke:#000000; stroke-linecap:round; stroke-linejoin:round; stroke-width:4; stroke-opacity:1; fill:none" points="775.688,1423.18 775.688,1404.28 "/>
<polyline clip-path="url(#clip040)" style="stroke:#000000; stroke-linecap:round; stroke-linejoin:round; stroke-width:4; stroke-opacity:1; fill:none" points="1281.26,1423.18 1281.26,1404.28 "/>
<polyline clip-path="url(#clip040)" style="stroke:#000000; stroke-linecap:round; stroke-linejoin:round; stroke-width:4; stroke-opacity:1; fill:none" points="1786.82,1423.18 1786.82,1404.28 "/>
<polyline clip-path="url(#clip040)" style="stroke:#000000; stroke-linecap:round; stroke-linejoin:round; stroke-width:4; stroke-opacity:1; fill:none" points="2292.39,1423.18 2292.39,1404.28 "/>
<path clip-path="url(#clip040)" d="M270.12 1454.1 Q266.509 1454.1 264.68 1457.66 Q262.874 1461.2 262.874 1468.33 Q262.874 1475.44 264.68 1479.01 Q266.509 1482.55 270.12 1482.55 Q273.754 1482.55 275.559 1479.01 Q277.388 1475.44 277.388 1468.33 Q277.388 1461.2 275.559 1457.66 Q273.754 1454.1 270.12 1454.1 M270.12 1450.39 Q275.93 1450.39 278.985 1455 Q282.064 1459.58 282.064 1468.33 Q282.064 1477.06 278.985 1481.67 Q275.93 1486.25 270.12 1486.25 Q264.31 1486.25 261.231 1481.67 Q258.175 1477.06 258.175 1468.33 Q258.175 1459.58 261.231 1455 Q264.31 1450.39 270.12 1450.39 Z" fill="#000000" fill-rule="nonzero" fill-opacity="1" /><path clip-path="url(#clip040)" d="M750.387 1451.02 L768.743 1451.02 L768.743 1454.96 L754.669 1454.96 L754.669 1463.43 Q755.688 1463.08 756.706 1462.92 Q757.725 1462.73 758.743 1462.73 Q764.53 1462.73 767.91 1465.9 Q771.289 1469.08 771.289 1474.49 Q771.289 1480.07 767.817 1483.17 Q764.345 1486.25 758.026 1486.25 Q755.85 1486.25 753.581 1485.88 Q751.336 1485.51 748.928 1484.77 L748.928 1480.07 Q751.012 1481.2 753.234 1481.76 Q755.456 1482.32 757.933 1482.32 Q761.938 1482.32 764.276 1480.21 Q766.614 1478.1 766.614 1474.49 Q766.614 1470.88 764.276 1468.77 Q761.938 1466.67 757.933 1466.67 Q756.058 1466.67 754.183 1467.08 Q752.331 1467.5 750.387 1468.38 L750.387 1451.02 Z" fill="#000000" fill-rule="nonzero" fill-opacity="1" /><path clip-path="url(#clip040)" d="M790.502 1454.1 Q786.891 1454.1 785.063 1457.66 Q783.257 1461.2 783.257 1468.33 Q783.257 1475.44 785.063 1479.01 Q786.891 1482.55 790.502 1482.55 Q794.137 1482.55 795.942 1479.01 Q797.771 1475.44 797.771 1468.33 Q797.771 1461.2 795.942 1457.66 Q794.137 1454.1 790.502 1454.1 M790.502 1450.39 Q796.312 1450.39 799.368 1455 Q802.447 1459.58 802.447 1468.33 Q802.447 1477.06 799.368 1481.67 Q796.312 1486.25 790.502 1486.25 Q784.692 1486.25 781.613 1481.67 Q778.558 1477.06 778.558 1468.33 Q778.558 1459.58 781.613 1455 Q784.692 1450.39 790.502 1450.39 Z" fill="#000000" fill-rule="nonzero" fill-opacity="1" /><path clip-path="url(#clip040)" d="M1240.86 1481.64 L1248.5 1481.64 L1248.5 1455.28 L1240.19 1456.95 L1240.19 1452.69 L1248.45 1451.02 L1253.13 1451.02 L1253.13 1481.64 L1260.77 1481.64 L1260.77 1485.58 L1240.86 1485.58 L1240.86 1481.64 Z" fill="#000000" fill-rule="nonzero" fill-opacity="1" /><path clip-path="url(#clip040)" d="M1280.21 1454.1 Q1276.6 1454.1 1274.77 1457.66 Q1272.97 1461.2 1272.97 1468.33 Q1272.97 1475.44 1274.77 1479.01 Q1276.6 1482.55 1280.21 1482.55 Q1283.85 1482.55 1285.65 1479.01 Q1287.48 1475.44 1287.48 1468.33 Q1287.48 1461.2 1285.65 1457.66 Q1283.85 1454.1 1280.21 1454.1 M1280.21 1450.39 Q1286.02 1450.39 1289.08 1455 Q1292.16 1459.58 1292.16 1468.33 Q1292.16 1477.06 1289.08 1481.67 Q1286.02 1486.25 1280.21 1486.25 Q1274.4 1486.25 1271.32 1481.67 Q1268.27 1477.06 1268.27 1468.33 Q1268.27 1459.58 1271.32 1455 Q1274.4 1450.39 1280.21 1450.39 Z" fill="#000000" fill-rule="nonzero" fill-opacity="1" /><path clip-path="url(#clip040)" d="M1310.38 1454.1 Q1306.76 1454.1 1304.94 1457.66 Q1303.13 1461.2 1303.13 1468.33 Q1303.13 1475.44 1304.94 1479.01 Q1306.76 1482.55 1310.38 1482.55 Q1314.01 1482.55 1315.82 1479.01 Q1317.64 1475.44 1317.64 1468.33 Q1317.64 1461.2 1315.82 1457.66 Q1314.01 1454.1 1310.38 1454.1 M1310.38 1450.39 Q1316.19 1450.39 1319.24 1455 Q1322.32 1459.58 1322.32 1468.33 Q1322.32 1477.06 1319.24 1481.67 Q1316.19 1486.25 1310.38 1486.25 Q1304.57 1486.25 1301.49 1481.67 Q1298.43 1477.06 1298.43 1468.33 Q1298.43 1459.58 1301.49 1455 Q1304.57 1450.39 1310.38 1450.39 Z" fill="#000000" fill-rule="nonzero" fill-opacity="1" /><path clip-path="url(#clip040)" d="M1746.43 1481.64 L1754.07 1481.64 L1754.07 1455.28 L1745.76 1456.95 L1745.76 1452.69 L1754.02 1451.02 L1758.7 1451.02 L1758.7 1481.64 L1766.34 1481.64 L1766.34 1485.58 L1746.43 1485.58 L1746.43 1481.64 Z" fill="#000000" fill-rule="nonzero" fill-opacity="1" /><path clip-path="url(#clip040)" d="M1775.83 1451.02 L1794.18 1451.02 L1794.18 1454.96 L1780.11 1454.96 L1780.11 1463.43 Q1781.13 1463.08 1782.15 1462.92 Q1783.17 1462.73 1784.18 1462.73 Q1789.97 1462.73 1793.35 1465.9 Q1796.73 1469.08 1796.73 1474.49 Q1796.73 1480.07 1793.26 1483.17 Q1789.79 1486.25 1783.47 1486.25 Q1781.29 1486.25 1779.02 1485.88 Q1776.78 1485.51 1774.37 1484.77 L1774.37 1480.07 Q1776.45 1481.2 1778.68 1481.76 Q1780.9 1482.32 1783.37 1482.32 Q1787.38 1482.32 1789.72 1480.21 Q1792.05 1478.1 1792.05 1474.49 Q1792.05 1470.88 1789.72 1468.77 Q1787.38 1466.67 1783.37 1466.67 Q1781.5 1466.67 1779.62 1467.08 Q1777.77 1467.5 1775.83 1468.38 L1775.83 1451.02 Z" fill="#000000" fill-rule="nonzero" fill-opacity="1" /><path clip-path="url(#clip040)" d="M1815.94 1454.1 Q1812.33 1454.1 1810.5 1457.66 Q1808.7 1461.2 1808.7 1468.33 Q1808.7 1475.44 1810.5 1479.01 Q1812.33 1482.55 1815.94 1482.55 Q1819.58 1482.55 1821.38 1479.01 Q1823.21 1475.44 1823.21 1468.33 Q1823.21 1461.2 1821.38 1457.66 Q1819.58 1454.1 1815.94 1454.1 M1815.94 1450.39 Q1821.75 1450.39 1824.81 1455 Q1827.89 1459.58 1827.89 1468.33 Q1827.89 1477.06 1824.81 1481.67 Q1821.75 1486.25 1815.94 1486.25 Q1810.13 1486.25 1807.05 1481.67 Q1804 1477.06 1804 1468.33 Q1804 1459.58 1807.05 1455 Q1810.13 1450.39 1815.94 1450.39 Z" fill="#000000" fill-rule="nonzero" fill-opacity="1" /><path clip-path="url(#clip040)" d="M2256.08 1481.64 L2272.4 1481.64 L2272.4 1485.58 L2250.46 1485.58 L2250.46 1481.64 Q2253.12 1478.89 2257.7 1474.26 Q2262.31 1469.61 2263.49 1468.27 Q2265.74 1465.74 2266.62 1464.01 Q2267.52 1462.25 2267.52 1460.56 Q2267.52 1457.8 2265.57 1456.07 Q2263.65 1454.33 2260.55 1454.33 Q2258.35 1454.33 2255.9 1455.09 Q2253.47 1455.86 2250.69 1457.41 L2250.69 1452.69 Q2253.51 1451.55 2255.97 1450.97 Q2258.42 1450.39 2260.46 1450.39 Q2265.83 1450.39 2269.02 1453.08 Q2272.22 1455.77 2272.22 1460.26 Q2272.22 1462.39 2271.41 1464.31 Q2270.62 1466.2 2268.51 1468.8 Q2267.94 1469.47 2264.83 1472.69 Q2261.73 1475.88 2256.08 1481.64 Z" fill="#000000" fill-rule="nonzero" fill-opacity="1" /><path clip-path="url(#clip040)" d="M2292.22 1454.1 Q2288.61 1454.1 2286.78 1457.66 Q2284.97 1461.2 2284.97 1468.33 Q2284.97 1475.44 2286.78 1479.01 Q2288.61 1482.55 2292.22 1482.55 Q2295.85 1482.55 2297.66 1479.01 Q2299.49 1475.44 2299.49 1468.33 Q2299.49 1461.2 2297.66 1457.66 Q2295.85 1454.1 2292.22 1454.1 M2292.22 1450.39 Q2298.03 1450.39 2301.08 1455 Q2304.16 1459.58 2304.16 1468.33 Q2304.16 1477.06 2301.08 1481.67 Q2298.03 1486.25 2292.22 1486.25 Q2286.41 1486.25 2283.33 1481.67 Q2280.27 1477.06 2280.27 1468.33 Q2280.27 1459.58 2283.33 1455 Q2286.41 1450.39 2292.22 1450.39 Z" fill="#000000" fill-rule="nonzero" fill-opacity="1" /><path clip-path="url(#clip040)" d="M2322.38 1454.1 Q2318.77 1454.1 2316.94 1457.66 Q2315.13 1461.2 2315.13 1468.33 Q2315.13 1475.44 2316.94 1479.01 Q2318.77 1482.55 2322.38 1482.55 Q2326.01 1482.55 2327.82 1479.01 Q2329.65 1475.44 2329.65 1468.33 Q2329.65 1461.2 2327.82 1457.66 Q2326.01 1454.1 2322.38 1454.1 M2322.38 1450.39 Q2328.19 1450.39 2331.25 1455 Q2334.32 1459.58 2334.32 1468.33 Q2334.32 1477.06 2331.25 1481.67 Q2328.19 1486.25 2322.38 1486.25 Q2316.57 1486.25 2313.49 1481.67 Q2310.43 1477.06 2310.43 1468.33 Q2310.43 1459.58 2313.49 1455 Q2316.57 1450.39 2322.38 1450.39 Z" fill="#000000" fill-rule="nonzero" fill-opacity="1" /><path clip-path="url(#clip040)" d="M1115.71 1550.25 Q1115.71 1543.79 1113.04 1540.13 Q1110.39 1536.44 1105.75 1536.44 Q1101.1 1536.44 1098.43 1540.13 Q1095.79 1543.79 1095.79 1550.25 Q1095.79 1556.71 1098.43 1560.4 Q1101.1 1564.07 1105.75 1564.07 Q1110.39 1564.07 1113.04 1560.4 Q1115.71 1556.71 1115.71 1550.25 M1095.79 1537.81 Q1097.63 1534.62 1100.43 1533.1 Q1103.27 1531.54 1107.18 1531.54 Q1113.67 1531.54 1117.72 1536.69 Q1121.79 1541.85 1121.79 1550.25 Q1121.79 1558.65 1117.72 1563.81 Q1113.67 1568.97 1107.18 1568.97 Q1103.27 1568.97 1100.43 1567.44 Q1097.63 1565.88 1095.79 1562.7 L1095.79 1568.04 L1089.9 1568.04 L1089.9 1518.52 L1095.79 1518.52 L1095.79 1537.81 Z" fill="#000000" fill-rule="nonzero" fill-opacity="1" /><path clip-path="url(#clip040)" d="M1131.5 1518.52 L1137.35 1518.52 L1137.35 1568.04 L1131.5 1568.04 L1131.5 1518.52 Z" fill="#000000" fill-rule="nonzero" fill-opacity="1" /><path clip-path="url(#clip040)" d="M1163.42 1536.5 Q1158.71 1536.5 1155.97 1540.19 Q1153.24 1543.85 1153.24 1550.25 Q1153.24 1556.65 1155.94 1560.34 Q1158.68 1564 1163.42 1564 Q1168.1 1564 1170.84 1560.31 Q1173.57 1556.62 1173.57 1550.25 Q1173.57 1543.92 1170.84 1540.23 Q1168.1 1536.5 1163.42 1536.5 M1163.42 1531.54 Q1171.06 1531.54 1175.42 1536.5 Q1179.78 1541.47 1179.78 1550.25 Q1179.78 1559 1175.42 1564 Q1171.06 1568.97 1163.42 1568.97 Q1155.75 1568.97 1151.39 1564 Q1147.06 1559 1147.06 1550.25 Q1147.06 1541.47 1151.39 1536.5 Q1155.75 1531.54 1163.42 1531.54 Z" fill="#000000" fill-rule="nonzero" fill-opacity="1" /><path clip-path="url(#clip040)" d="M1215.14 1533.76 L1215.14 1539.24 Q1212.66 1537.87 1210.15 1537.2 Q1207.66 1536.5 1205.12 1536.5 Q1199.42 1536.5 1196.27 1540.13 Q1193.12 1543.73 1193.12 1550.25 Q1193.12 1556.78 1196.27 1560.4 Q1199.42 1564 1205.12 1564 Q1207.66 1564 1210.15 1563.33 Q1212.66 1562.63 1215.14 1561.26 L1215.14 1566.68 Q1212.69 1567.82 1210.05 1568.39 Q1207.44 1568.97 1204.48 1568.97 Q1196.43 1568.97 1191.68 1563.91 Q1186.94 1558.85 1186.94 1550.25 Q1186.94 1541.53 1191.72 1536.53 Q1196.52 1531.54 1204.86 1531.54 Q1207.57 1531.54 1210.15 1532.11 Q1212.72 1532.65 1215.14 1533.76 Z" fill="#000000" fill-rule="nonzero" fill-opacity="1" /><path clip-path="url(#clip040)" d="M1225.1 1518.52 L1230.99 1518.52 L1230.99 1547.77 L1248.47 1532.4 L1255.95 1532.4 L1237.04 1549.07 L1256.74 1568.04 L1249.1 1568.04 L1230.99 1550.63 L1230.99 1568.04 L1225.1 1568.04 L1225.1 1518.52 Z" fill="#000000" fill-rule="nonzero" fill-opacity="1" /><path clip-path="url(#clip040)" d="M1306.52 1533.45 L1306.52 1538.98 Q1304.04 1537.71 1301.37 1537.07 Q1298.69 1536.44 1295.83 1536.44 Q1291.47 1536.44 1289.27 1537.77 Q1287.11 1539.11 1287.11 1541.79 Q1287.11 1543.82 1288.67 1545 Q1290.23 1546.15 1294.94 1547.2 L1296.94 1547.64 Q1303.18 1548.98 1305.79 1551.43 Q1308.43 1553.85 1308.43 1558.21 Q1308.43 1563.17 1304.49 1566.07 Q1300.57 1568.97 1293.7 1568.97 Q1290.83 1568.97 1287.71 1568.39 Q1284.62 1567.85 1281.19 1566.74 L1281.19 1560.69 Q1284.43 1562.38 1287.58 1563.24 Q1290.74 1564.07 1293.82 1564.07 Q1297.96 1564.07 1300.19 1562.66 Q1302.42 1561.23 1302.42 1558.65 Q1302.42 1556.27 1300.79 1554.99 Q1299.2 1553.72 1293.76 1552.54 L1291.72 1552.07 Q1286.28 1550.92 1283.86 1548.56 Q1281.44 1546.18 1281.44 1542.04 Q1281.44 1537.01 1285.01 1534.27 Q1288.57 1531.54 1295.13 1531.54 Q1298.37 1531.54 1301.24 1532.01 Q1304.1 1532.49 1306.52 1533.45 Z" fill="#000000" fill-rule="nonzero" fill-opacity="1" /><path clip-path="url(#clip040)" d="M1317.76 1532.4 L1323.61 1532.4 L1323.61 1568.04 L1317.76 1568.04 L1317.76 1532.4 M1317.76 1518.52 L1323.61 1518.52 L1323.61 1525.93 L1317.76 1525.93 L1317.76 1518.52 Z" fill="#000000" fill-rule="nonzero" fill-opacity="1" /><path clip-path="url(#clip040)" d="M1333.32 1532.4 L1361.14 1532.4 L1361.14 1537.74 L1339.11 1563.37 L1361.14 1563.37 L1361.14 1568.04 L1332.53 1568.04 L1332.53 1562.7 L1354.55 1537.07 L1333.32 1537.07 L1333.32 1532.4 Z" fill="#000000" fill-rule="nonzero" fill-opacity="1" /><path clip-path="url(#clip040)" d="M1400.58 1548.76 L1400.58 1551.62 L1373.65 1551.62 Q1374.03 1557.67 1377.28 1560.85 Q1380.56 1564 1386.38 1564 Q1389.75 1564 1392.9 1563.17 Q1396.09 1562.35 1399.21 1560.69 L1399.21 1566.23 Q1396.06 1567.57 1392.75 1568.27 Q1389.44 1568.97 1386.03 1568.97 Q1377.5 1568.97 1372.5 1564 Q1367.54 1559.04 1367.54 1550.57 Q1367.54 1541.82 1372.25 1536.69 Q1376.99 1531.54 1385.01 1531.54 Q1392.2 1531.54 1396.37 1536.18 Q1400.58 1540.8 1400.58 1548.76 M1394.72 1547.04 Q1394.66 1542.23 1392.01 1539.37 Q1389.4 1536.5 1385.08 1536.5 Q1380.17 1536.5 1377.21 1539.27 Q1374.29 1542.04 1373.84 1547.07 L1394.72 1547.04 Z" fill="#000000" fill-rule="nonzero" fill-opacity="1" /><path clip-path="url(#clip040)" d="M1458.66 1539.24 Q1460.86 1535.29 1463.91 1533.41 Q1466.97 1531.54 1471.11 1531.54 Q1476.68 1531.54 1479.7 1535.45 Q1482.72 1539.33 1482.72 1546.53 L1482.72 1568.04 L1476.84 1568.04 L1476.84 1546.72 Q1476.84 1541.59 1475.02 1539.11 Q1473.21 1536.63 1469.48 1536.63 Q1464.93 1536.63 1462.29 1539.65 Q1459.65 1542.68 1459.65 1547.9 L1459.65 1568.04 L1453.76 1568.04 L1453.76 1546.72 Q1453.76 1541.56 1451.95 1539.11 Q1450.13 1536.63 1446.34 1536.63 Q1441.86 1536.63 1439.22 1539.68 Q1436.57 1542.71 1436.57 1547.9 L1436.57 1568.04 L1430.69 1568.04 L1430.69 1532.4 L1436.57 1532.4 L1436.57 1537.93 Q1438.58 1534.66 1441.38 1533.1 Q1444.18 1531.54 1448.03 1531.54 Q1451.91 1531.54 1454.62 1533.51 Q1457.36 1535.48 1458.66 1539.24 Z" fill="#000000" fill-rule="nonzero" fill-opacity="1" /><polyline clip-path="url(#clip042)" style="stroke:#000000; stroke-linecap:round; stroke-linejoin:round; stroke-width:2; stroke-opacity:0.1; fill:none" points="219.866,1206.93 2352.76,1206.93 "/>
<polyline clip-path="url(#clip042)" style="stroke:#000000; stroke-linecap:round; stroke-linejoin:round; stroke-width:2; stroke-opacity:0.1; fill:none" points="219.866,950.818 2352.76,950.818 "/>
<polyline clip-path="url(#clip042)" style="stroke:#000000; stroke-linecap:round; stroke-linejoin:round; stroke-width:2; stroke-opacity:0.1; fill:none" points="219.866,694.705 2352.76,694.705 "/>
<polyline clip-path="url(#clip042)" style="stroke:#000000; stroke-linecap:round; stroke-linejoin:round; stroke-width:2; stroke-opacity:0.1; fill:none" points="219.866,438.591 2352.76,438.591 "/>
<polyline clip-path="url(#clip042)" style="stroke:#000000; stroke-linecap:round; stroke-linejoin:round; stroke-width:2; stroke-opacity:0.1; fill:none" points="219.866,182.478 2352.76,182.478 "/>
<polyline clip-path="url(#clip040)" style="stroke:#000000; stroke-linecap:round; stroke-linejoin:round; stroke-width:4; stroke-opacity:1; fill:none" points="219.866,1423.18 219.866,123.472 "/>
<polyline clip-path="url(#clip040)" style="stroke:#000000; stroke-linecap:round; stroke-linejoin:round; stroke-width:4; stroke-opacity:1; fill:none" points="219.866,1206.93 238.764,1206.93 "/>
<polyline clip-path="url(#clip040)" style="stroke:#000000; stroke-linecap:round; stroke-linejoin:round; stroke-width:4; stroke-opacity:1; fill:none" points="219.866,950.818 238.764,950.818 "/>
<polyline clip-path="url(#clip040)" style="stroke:#000000; stroke-linecap:round; stroke-linejoin:round; stroke-width:4; stroke-opacity:1; fill:none" points="219.866,694.705 238.764,694.705 "/>
<polyline clip-path="url(#clip040)" style="stroke:#000000; stroke-linecap:round; stroke-linejoin:round; stroke-width:4; stroke-opacity:1; fill:none" points="219.866,438.591 238.764,438.591 "/>
<polyline clip-path="url(#clip040)" style="stroke:#000000; stroke-linecap:round; stroke-linejoin:round; stroke-width:4; stroke-opacity:1; fill:none" points="219.866,182.478 238.764,182.478 "/>
<path clip-path="url(#clip040)" d="M126.205 1192.73 Q122.593 1192.73 120.765 1196.29 Q118.959 1199.84 118.959 1206.97 Q118.959 1214.07 120.765 1217.64 Q122.593 1221.18 126.205 1221.18 Q129.839 1221.18 131.644 1217.64 Q133.473 1214.07 133.473 1206.97 Q133.473 1199.84 131.644 1196.29 Q129.839 1192.73 126.205 1192.73 M126.205 1189.03 Q132.015 1189.03 135.07 1193.63 Q138.149 1198.22 138.149 1206.97 Q138.149 1215.69 135.07 1220.3 Q132.015 1224.88 126.205 1224.88 Q120.394 1224.88 117.316 1220.3 Q114.26 1215.69 114.26 1206.97 Q114.26 1198.22 117.316 1193.63 Q120.394 1189.03 126.205 1189.03 Z" fill="#000000" fill-rule="nonzero" fill-opacity="1" /><path clip-path="url(#clip040)" d="M146.366 1218.33 L151.251 1218.33 L151.251 1224.21 L146.366 1224.21 L146.366 1218.33 Z" fill="#000000" fill-rule="nonzero" fill-opacity="1" /><path clip-path="url(#clip040)" d="M174.283 1193.72 L162.477 1212.17 L174.283 1212.17 L174.283 1193.72 M173.056 1189.65 L178.936 1189.65 L178.936 1212.17 L183.866 1212.17 L183.866 1216.06 L178.936 1216.06 L178.936 1224.21 L174.283 1224.21 L174.283 1216.06 L158.681 1216.06 L158.681 1211.55 L173.056 1189.65 Z" fill="#000000" fill-rule="nonzero" fill-opacity="1" /><path clip-path="url(#clip040)" d="M126.529 936.616 Q122.918 936.616 121.089 940.181 Q119.283 943.723 119.283 950.852 Q119.283 957.959 121.089 961.524 Q122.918 965.065 126.529 965.065 Q130.163 965.065 131.968 961.524 Q133.797 957.959 133.797 950.852 Q133.797 943.723 131.968 940.181 Q130.163 936.616 126.529 936.616 M126.529 932.913 Q132.339 932.913 135.394 937.519 Q138.473 942.102 138.473 950.852 Q138.473 959.579 135.394 964.186 Q132.339 968.769 126.529 968.769 Q120.718 968.769 117.64 964.186 Q114.584 959.579 114.584 950.852 Q114.584 942.102 117.64 937.519 Q120.718 932.913 126.529 932.913 Z" fill="#000000" fill-rule="nonzero" fill-opacity="1" /><path clip-path="url(#clip040)" d="M146.691 962.218 L151.575 962.218 L151.575 968.098 L146.691 968.098 L146.691 962.218 Z" fill="#000000" fill-rule="nonzero" fill-opacity="1" /><path clip-path="url(#clip040)" d="M172.339 948.954 Q169.19 948.954 167.339 951.107 Q165.51 953.26 165.51 957.01 Q165.51 960.737 167.339 962.912 Q169.19 965.065 172.339 965.065 Q175.487 965.065 177.315 962.912 Q179.167 960.737 179.167 957.01 Q179.167 953.26 177.315 951.107 Q175.487 948.954 172.339 948.954 M181.621 934.302 L181.621 938.561 Q179.862 937.727 178.056 937.288 Q176.274 936.848 174.514 936.848 Q169.885 936.848 167.431 939.973 Q165.001 943.098 164.653 949.417 Q166.019 947.403 168.079 946.339 Q170.139 945.251 172.616 945.251 Q177.825 945.251 180.834 948.422 Q183.866 951.57 183.866 957.01 Q183.866 962.334 180.718 965.551 Q177.57 968.769 172.339 968.769 Q166.343 968.769 163.172 964.186 Q160.001 959.579 160.001 950.852 Q160.001 942.658 163.89 937.797 Q167.778 932.913 174.329 932.913 Q176.089 932.913 177.871 933.26 Q179.676 933.607 181.621 934.302 Z" fill="#000000" fill-rule="nonzero" fill-opacity="1" /><path clip-path="url(#clip040)" d="M126.783 680.503 Q123.172 680.503 121.343 684.068 Q119.538 687.61 119.538 694.739 Q119.538 701.846 121.343 705.411 Q123.172 708.952 126.783 708.952 Q130.417 708.952 132.223 705.411 Q134.052 701.846 134.052 694.739 Q134.052 687.61 132.223 684.068 Q130.417 680.503 126.783 680.503 M126.783 676.8 Q132.593 676.8 135.649 681.406 Q138.728 685.989 138.728 694.739 Q138.728 703.466 135.649 708.073 Q132.593 712.656 126.783 712.656 Q120.973 712.656 117.894 708.073 Q114.839 703.466 114.839 694.739 Q114.839 685.989 117.894 681.406 Q120.973 676.8 126.783 676.8 Z" fill="#000000" fill-rule="nonzero" fill-opacity="1" /><path clip-path="url(#clip040)" d="M146.945 706.105 L151.829 706.105 L151.829 711.985 L146.945 711.985 L146.945 706.105 Z" fill="#000000" fill-rule="nonzero" fill-opacity="1" /><path clip-path="url(#clip040)" d="M172.014 695.573 Q168.681 695.573 166.76 697.355 Q164.862 699.137 164.862 702.262 Q164.862 705.387 166.76 707.17 Q168.681 708.952 172.014 708.952 Q175.348 708.952 177.269 707.17 Q179.19 705.364 179.19 702.262 Q179.19 699.137 177.269 697.355 Q175.371 695.573 172.014 695.573 M167.339 693.582 Q164.329 692.841 162.64 690.781 Q160.973 688.721 160.973 685.758 Q160.973 681.614 163.913 679.207 Q166.876 676.8 172.014 676.8 Q177.176 676.8 180.116 679.207 Q183.056 681.614 183.056 685.758 Q183.056 688.721 181.366 690.781 Q179.7 692.841 176.714 693.582 Q180.093 694.369 181.968 696.661 Q183.866 698.952 183.866 702.262 Q183.866 707.286 180.788 709.971 Q177.732 712.656 172.014 712.656 Q166.297 712.656 163.218 709.971 Q160.163 707.286 160.163 702.262 Q160.163 698.952 162.061 696.661 Q163.959 694.369 167.339 693.582 M165.626 686.198 Q165.626 688.883 167.292 690.387 Q168.982 691.892 172.014 691.892 Q175.024 691.892 176.714 690.387 Q178.426 688.883 178.426 686.198 Q178.426 683.512 176.714 682.008 Q175.024 680.503 172.014 680.503 Q168.982 680.503 167.292 682.008 Q165.626 683.512 165.626 686.198 Z" fill="#000000" fill-rule="nonzero" fill-opacity="1" /><path clip-path="url(#clip040)" d="M117.501 451.936 L125.14 451.936 L125.14 425.571 L116.83 427.237 L116.83 422.978 L125.093 421.311 L129.769 421.311 L129.769 451.936 L137.408 451.936 L137.408 455.871 L117.501 455.871 L117.501 451.936 Z" fill="#000000" fill-rule="nonzero" fill-opacity="1" /><path clip-path="url(#clip040)" d="M146.853 449.992 L151.737 449.992 L151.737 455.871 L146.853 455.871 L146.853 449.992 Z" fill="#000000" fill-rule="nonzero" fill-opacity="1" /><path clip-path="url(#clip040)" d="M171.922 424.39 Q168.311 424.39 166.482 427.955 Q164.677 431.497 164.677 438.626 Q164.677 445.733 166.482 449.297 Q168.311 452.839 171.922 452.839 Q175.556 452.839 177.362 449.297 Q179.19 445.733 179.19 438.626 Q179.19 431.497 177.362 427.955 Q175.556 424.39 171.922 424.39 M171.922 420.686 Q177.732 420.686 180.788 425.293 Q183.866 429.876 183.866 438.626 Q183.866 447.353 180.788 451.959 Q177.732 456.543 171.922 456.543 Q166.112 456.543 163.033 451.959 Q159.978 447.353 159.978 438.626 Q159.978 429.876 163.033 425.293 Q166.112 420.686 171.922 420.686 Z" fill="#000000" fill-rule="nonzero" fill-opacity="1" /><path clip-path="url(#clip040)" d="M119.098 195.823 L126.737 195.823 L126.737 169.458 L118.427 171.124 L118.427 166.865 L126.691 165.198 L131.367 165.198 L131.367 195.823 L139.005 195.823 L139.005 199.758 L119.098 199.758 L119.098 195.823 Z" fill="#000000" fill-rule="nonzero" fill-opacity="1" /><path clip-path="url(#clip040)" d="M148.45 193.879 L153.334 193.879 L153.334 199.758 L148.45 199.758 L148.45 193.879 Z" fill="#000000" fill-rule="nonzero" fill-opacity="1" /><path clip-path="url(#clip040)" d="M167.547 195.823 L183.866 195.823 L183.866 199.758 L161.922 199.758 L161.922 195.823 Q164.584 193.069 169.167 188.439 Q173.774 183.786 174.954 182.444 Q177.2 179.921 178.079 178.184 Q178.982 176.425 178.982 174.735 Q178.982 171.981 177.038 170.245 Q175.116 168.509 172.014 168.509 Q169.815 168.509 167.362 169.272 Q164.931 170.036 162.153 171.587 L162.153 166.865 Q164.977 165.731 167.431 165.152 Q169.885 164.573 171.922 164.573 Q177.292 164.573 180.487 167.259 Q183.681 169.944 183.681 174.434 Q183.681 176.564 182.871 178.485 Q182.084 180.383 179.977 182.976 Q179.399 183.647 176.297 186.865 Q173.195 190.059 167.547 195.823 Z" fill="#000000" fill-rule="nonzero" fill-opacity="1" /><path clip-path="url(#clip040)" d="M57.5111 1053.05 Q59.0389 1051.91 59.0389 1048.47 L59.0389 1045.63 L64.0042 1045.63 L64.0042 1049.17 Q64.0042 1054.9 60.9486 1057.51 Q57.8294 1060.12 51.0818 1060.12 L34.2127 1060.12 L34.2127 1073.48 L28.3562 1073.48 L28.3562 1040.61 L34.2127 1040.61 L34.2127 1054.13 L51.4319 1054.13 Q56.047 1054.13 57.5111 1053.05 Z" fill="#000000" fill-rule="nonzero" fill-opacity="1" /><path clip-path="url(#clip040)" d="M74.8259 1004.19 L79.3773 1004.19 L79.3773 1038.06 L74.8259 1038.06 L74.8259 1004.19 Z" fill="#000000" fill-rule="nonzero" fill-opacity="1" /><path clip-path="url(#clip040)" d="M28.3562 998.688 L28.3562 992.831 L64.0042 992.831 L64.0042 998.688 L28.3562 998.688 M14.479 998.688 L14.479 992.831 L21.895 992.831 L21.895 998.688 L14.479 998.688 Z" fill="#000000" fill-rule="nonzero" fill-opacity="1" /><path clip-path="url(#clip040)" d="M42.4881 950.945 L64.0042 950.945 L64.0042 956.802 L42.679 956.802 Q37.6183 956.802 35.1038 958.775 Q32.5894 960.748 32.5894 964.695 Q32.5894 969.437 35.6131 972.175 Q38.6368 974.912 43.8567 974.912 L64.0042 974.912 L64.0042 980.8 L28.3562 980.8 L28.3562 974.912 L33.8944 974.912 Q30.6797 972.811 29.0883 969.979 Q27.4968 967.114 27.4968 963.39 Q27.4968 957.247 31.3163 954.096 Q35.1038 950.945 42.4881 950.945 Z" fill="#000000" fill-rule="nonzero" fill-opacity="1" /><path clip-path="url(#clip040)" d="M18.2347 933.471 L28.3562 933.471 L28.3562 921.408 L32.9077 921.408 L32.9077 933.471 L52.2594 933.471 Q56.6199 933.471 57.8613 932.294 Q59.1026 931.084 59.1026 927.424 L59.1026 921.408 L64.0042 921.408 L64.0042 927.424 Q64.0042 934.203 61.4897 936.781 Q58.9434 939.36 52.2594 939.36 L32.9077 939.36 L32.9077 943.656 L28.3562 943.656 L28.3562 939.36 L18.2347 939.36 L18.2347 933.471 Z" fill="#000000" fill-rule="nonzero" fill-opacity="1" /><path clip-path="url(#clip040)" d="M32.4621 879.172 Q32.4621 883.882 36.1542 886.62 Q39.8145 889.357 46.212 889.357 Q52.6095 889.357 56.3017 886.651 Q59.9619 883.914 59.9619 879.172 Q59.9619 874.493 56.2698 871.756 Q52.5777 869.018 46.212 869.018 Q39.8781 869.018 36.186 871.756 Q32.4621 874.493 32.4621 879.172 M27.4968 879.172 Q27.4968 871.533 32.4621 867.172 Q37.4273 862.812 46.212 862.812 Q54.9649 862.812 59.9619 867.172 Q64.9272 871.533 64.9272 879.172 Q64.9272 886.842 59.9619 891.203 Q54.9649 895.532 46.212 895.532 Q37.4273 895.532 32.4621 891.203 Q27.4968 886.842 27.4968 879.172 Z" fill="#000000" fill-rule="nonzero" fill-opacity="1" /><path clip-path="url(#clip040)" d="M28.3562 857.306 L28.3562 851.099 L58.275 839.959 L28.3562 828.819 L28.3562 822.612 L64.0042 835.98 L64.0042 843.938 L28.3562 857.306 Z" fill="#000000" fill-rule="nonzero" fill-opacity="1" /><path clip-path="url(#clip040)" d="M44.7161 784.036 L47.5806 784.036 L47.5806 810.963 Q53.6281 810.581 56.8109 807.335 Q59.9619 804.056 59.9619 798.232 Q59.9619 794.858 59.1344 791.707 Q58.3069 788.524 56.6518 785.405 L62.1899 785.405 Q63.5267 788.556 64.227 791.866 Q64.9272 795.176 64.9272 798.582 Q64.9272 807.112 59.9619 812.109 Q54.9967 817.074 46.5303 817.074 Q37.7774 817.074 32.6531 812.364 Q27.4968 807.621 27.4968 799.6 Q27.4968 792.407 32.1438 788.238 Q36.7589 784.036 44.7161 784.036 M42.9973 789.893 Q38.1912 789.956 35.3266 792.598 Q32.4621 795.208 32.4621 799.537 Q32.4621 804.438 35.2312 807.398 Q38.0002 810.327 43.0292 810.772 L42.9973 789.893 Z" fill="#000000" fill-rule="nonzero" fill-opacity="1" /><path clip-path="url(#clip040)" d="M33.8307 753.767 Q33.2578 754.754 33.0032 755.932 Q32.7167 757.078 32.7167 758.478 Q32.7167 763.443 35.9632 766.117 Q39.1779 768.759 45.2253 768.759 L64.0042 768.759 L64.0042 774.647 L28.3562 774.647 L28.3562 768.759 L33.8944 768.759 Q30.6479 766.913 29.0883 763.952 Q27.4968 760.992 27.4968 756.759 Q27.4968 756.154 27.5923 755.422 Q27.656 754.69 27.8151 753.799 L33.8307 753.767 Z" fill="#000000" fill-rule="nonzero" fill-opacity="1" /><path clip-path="url(#clip040)" d="M16.4842 730.883 L16.4842 724.39 L56.6518 714.395 L16.4842 704.433 L16.4842 697.208 L56.6518 687.214 L16.4842 677.252 L16.4842 670.727 L64.0042 682.662 L64.0042 690.747 L22.7544 700.773 L64.0042 710.894 L64.0042 718.979 L16.4842 730.883 Z" fill="#000000" fill-rule="nonzero" fill-opacity="1" /><path clip-path="url(#clip040)" d="M34.4036 661.687 L34.4036 620.883 L39.7508 620.883 L39.7508 661.687 L34.4036 661.687 M47.3897 661.687 L47.3897 620.883 L52.8005 620.883 L52.8005 661.687 L47.3897 661.687 Z" fill="#000000" fill-rule="nonzero" fill-opacity="1" /><path clip-path="url(#clip040)" d="M16.4842 606.942 L16.4842 581.702 L21.895 581.702 L21.895 601.054 L33.5443 601.054 Q33.0668 599.654 32.844 598.253 Q32.5894 596.853 32.5894 595.452 Q32.5894 587.495 36.9499 582.848 Q41.3104 578.201 48.7583 578.201 Q56.429 578.201 60.694 582.975 Q64.9272 587.75 64.9272 596.439 Q64.9272 599.431 64.4179 602.55 Q63.9087 605.637 62.8902 608.948 L56.429 608.948 Q57.9886 606.083 58.7524 603.027 Q59.5163 599.972 59.5163 596.566 Q59.5163 591.06 56.6199 587.845 Q53.7235 584.631 48.7583 584.631 Q43.793 584.631 40.8966 587.845 Q38.0002 591.06 38.0002 596.566 Q38.0002 599.144 38.5732 601.722 Q39.1461 604.269 40.3556 606.942 L16.4842 606.942 Z" fill="#000000" fill-rule="nonzero" fill-opacity="1" /><path clip-path="url(#clip040)" d="M20.7174 551.783 Q20.7174 556.749 25.6189 559.263 Q30.4887 561.746 40.2919 561.746 Q50.0633 561.746 54.9649 559.263 Q59.8346 556.749 59.8346 551.783 Q59.8346 546.786 54.9649 544.304 Q50.0633 541.789 40.2919 541.789 Q30.4887 541.789 25.6189 544.304 Q20.7174 546.786 20.7174 551.783 M15.6248 551.783 Q15.6248 543.795 21.9587 539.593 Q28.2607 535.36 40.2919 535.36 Q52.2913 535.36 58.6251 539.593 Q64.9272 543.795 64.9272 551.783 Q64.9272 559.772 58.6251 564.006 Q52.2913 568.207 40.2919 568.207 Q28.2607 568.207 21.9587 564.006 Q15.6248 559.772 15.6248 551.783 Z" fill="#000000" fill-rule="nonzero" fill-opacity="1" /><path clip-path="url(#clip040)" d="M55.9197 524.061 L55.9197 517.345 L64.0042 517.345 L64.0042 524.061 L55.9197 524.061 Z" fill="#000000" fill-rule="nonzero" fill-opacity="1" /><path clip-path="url(#clip040)" d="M20.7174 489.591 Q20.7174 494.556 25.6189 497.07 Q30.4887 499.553 40.2919 499.553 Q50.0633 499.553 54.9649 497.07 Q59.8346 494.556 59.8346 489.591 Q59.8346 484.593 54.9649 482.111 Q50.0633 479.596 40.2919 479.596 Q30.4887 479.596 25.6189 482.111 Q20.7174 484.593 20.7174 489.591 M15.6248 489.591 Q15.6248 481.602 21.9587 477.4 Q28.2607 473.167 40.2919 473.167 Q52.2913 473.167 58.6251 477.4 Q64.9272 481.602 64.9272 489.591 Q64.9272 497.579 58.6251 501.813 Q52.2913 506.014 40.2919 506.014 Q28.2607 506.014 21.9587 501.813 Q15.6248 497.579 15.6248 489.591 Z" fill="#000000" fill-rule="nonzero" fill-opacity="1" /><path clip-path="url(#clip040)" d="M667.009 65.7705 L667.009 89.8329 L659.515 89.8329 L659.515 27.2059 L667.009 27.2059 L667.009 34.0924 Q669.358 30.0415 672.923 28.0971 Q676.528 26.1121 681.511 26.1121 Q689.775 26.1121 694.92 32.6746 Q700.105 39.2371 700.105 49.9314 Q700.105 60.6258 694.92 67.1883 Q689.775 73.7508 681.511 73.7508 Q676.528 73.7508 672.923 71.8063 Q669.358 69.8214 667.009 65.7705 M692.368 49.9314 Q692.368 41.7081 688.965 37.0496 Q685.602 32.3505 679.688 32.3505 Q673.774 32.3505 670.371 37.0496 Q667.009 41.7081 667.009 49.9314 Q667.009 58.1548 670.371 62.8538 Q673.774 67.5124 679.688 67.5124 Q685.602 67.5124 688.965 62.8538 Q692.368 58.1548 692.368 49.9314 Z" fill="#000000" fill-rule="nonzero" fill-opacity="1" /><path clip-path="url(#clip040)" d="M751.268 48.0275 L751.268 51.6733 L716.997 51.6733 Q717.483 59.3701 721.615 63.421 Q725.787 67.4314 733.201 67.4314 Q737.495 67.4314 741.505 66.3781 Q745.556 65.3249 749.526 63.2184 L749.526 70.267 Q745.515 71.9684 741.302 72.8596 Q737.089 73.7508 732.755 73.7508 Q721.899 73.7508 715.539 67.4314 Q709.219 61.1119 709.219 50.3365 Q709.219 39.1965 715.215 32.6746 Q721.25 26.1121 731.459 26.1121 Q740.614 26.1121 745.92 32.0264 Q751.268 37.9003 751.268 48.0275 M743.814 45.84 Q743.733 39.7232 740.371 36.0774 Q737.049 32.4315 731.54 32.4315 Q725.301 32.4315 721.534 35.9558 Q717.807 39.4801 717.24 45.8805 L743.814 45.84 Z" fill="#000000" fill-rule="nonzero" fill-opacity="1" /><path clip-path="url(#clip040)" d="M789.792 34.1734 Q788.536 33.4443 787.037 33.1202 Q785.579 32.7556 783.796 32.7556 Q777.477 32.7556 774.074 36.8875 Q770.712 40.9789 770.712 48.6757 L770.712 72.576 L763.218 72.576 L763.218 27.2059 L770.712 27.2059 L770.712 34.2544 Q773.062 30.1225 776.829 28.1376 Q780.596 26.1121 785.984 26.1121 Q786.754 26.1121 787.685 26.2337 Q788.617 26.3147 789.751 26.5172 L789.792 34.1734 Z" fill="#000000" fill-rule="nonzero" fill-opacity="1" /><path clip-path="url(#clip040)" d="M826.533 28.5427 L826.533 35.5912 Q823.374 33.9709 819.971 33.1607 Q816.568 32.3505 812.922 32.3505 Q807.373 32.3505 804.578 34.0519 Q801.823 35.7533 801.823 39.156 Q801.823 41.7486 803.808 43.2475 Q805.793 44.7058 811.788 46.0426 L814.34 46.6097 Q822.28 48.3111 825.602 51.4303 Q828.964 54.509 828.964 60.0587 Q828.964 66.3781 823.941 70.0644 Q818.958 73.7508 810.208 73.7508 Q806.562 73.7508 802.593 73.0216 Q798.663 72.3329 794.288 70.9151 L794.288 63.2184 Q798.42 65.3654 802.431 66.4591 Q806.441 67.5124 810.37 67.5124 Q815.637 67.5124 818.472 65.73 Q821.308 63.9071 821.308 60.6258 Q821.308 57.5877 819.242 55.9673 Q817.216 54.3469 810.289 52.8481 L807.697 52.2405 Q800.77 50.7821 797.691 47.7845 Q794.612 44.7463 794.612 39.4801 Q794.612 33.0797 799.149 29.5959 Q803.686 26.1121 812.031 26.1121 Q816.163 26.1121 819.809 26.7198 Q823.455 27.3274 826.533 28.5427 Z" fill="#000000" fill-rule="nonzero" fill-opacity="1" /><path clip-path="url(#clip040)" d="M840.833 27.2059 L848.287 27.2059 L848.287 72.576 L840.833 72.576 L840.833 27.2059 M840.833 9.54393 L848.287 9.54393 L848.287 18.9825 L840.833 18.9825 L840.833 9.54393 Z" fill="#000000" fill-rule="nonzero" fill-opacity="1" /><path clip-path="url(#clip040)" d="M892.806 28.5427 L892.806 35.5912 Q889.647 33.9709 886.244 33.1607 Q882.841 32.3505 879.195 32.3505 Q873.645 32.3505 870.85 34.0519 Q868.096 35.7533 868.096 39.156 Q868.096 41.7486 870.081 43.2475 Q872.066 44.7058 878.061 46.0426 L880.613 46.6097 Q888.553 48.3111 891.875 51.4303 Q895.237 54.509 895.237 60.0587 Q895.237 66.3781 890.214 70.0644 Q885.231 73.7508 876.481 73.7508 Q872.835 73.7508 868.865 73.0216 Q864.936 72.3329 860.561 70.9151 L860.561 63.2184 Q864.693 65.3654 868.703 66.4591 Q872.714 67.5124 876.643 67.5124 Q881.909 67.5124 884.745 65.73 Q887.581 63.9071 887.581 60.6258 Q887.581 57.5877 885.515 55.9673 Q883.489 54.3469 876.562 52.8481 L873.97 52.2405 Q867.042 50.7821 863.964 47.7845 Q860.885 44.7463 860.885 39.4801 Q860.885 33.0797 865.422 29.5959 Q869.959 26.1121 878.304 26.1121 Q882.436 26.1121 886.082 26.7198 Q889.728 27.3274 892.806 28.5427 Z" fill="#000000" fill-rule="nonzero" fill-opacity="1" /><path clip-path="url(#clip040)" d="M914.479 14.324 L914.479 27.2059 L929.832 27.2059 L929.832 32.9987 L914.479 32.9987 L914.479 57.6282 Q914.479 63.1779 915.977 64.7578 Q917.517 66.3376 922.175 66.3376 L929.832 66.3376 L929.832 72.576 L922.175 72.576 Q913.547 72.576 910.266 69.3758 Q906.984 66.1351 906.984 57.6282 L906.984 32.9987 L901.516 32.9987 L901.516 27.2059 L906.984 27.2059 L906.984 14.324 L914.479 14.324 Z" fill="#000000" fill-rule="nonzero" fill-opacity="1" /><path clip-path="url(#clip040)" d="M978.442 48.0275 L978.442 51.6733 L944.172 51.6733 Q944.658 59.3701 948.79 63.421 Q952.962 67.4314 960.375 67.4314 Q964.669 67.4314 968.68 66.3781 Q972.731 65.3249 976.7 63.2184 L976.7 70.267 Q972.69 71.9684 968.477 72.8596 Q964.264 73.7508 959.93 73.7508 Q949.073 73.7508 942.713 67.4314 Q936.394 61.1119 936.394 50.3365 Q936.394 39.1965 942.389 32.6746 Q948.425 26.1121 958.633 26.1121 Q967.788 26.1121 973.095 32.0264 Q978.442 37.9003 978.442 48.0275 M970.989 45.84 Q970.908 39.7232 967.545 36.0774 Q964.224 32.4315 958.714 32.4315 Q952.476 32.4315 948.709 35.9558 Q944.982 39.4801 944.415 45.8805 L970.989 45.84 Z" fill="#000000" fill-rule="nonzero" fill-opacity="1" /><path clip-path="url(#clip040)" d="M1028.39 45.1919 L1028.39 72.576 L1020.94 72.576 L1020.94 45.4349 Q1020.94 38.994 1018.42 35.7938 Q1015.91 32.5936 1010.89 32.5936 Q1004.85 32.5936 1001.37 36.4419 Q997.887 40.2903 997.887 46.9338 L997.887 72.576 L990.393 72.576 L990.393 27.2059 L997.887 27.2059 L997.887 34.2544 Q1000.56 30.163 1004.17 28.1376 Q1007.81 26.1121 1012.55 26.1121 Q1020.37 26.1121 1024.38 30.9732 Q1028.39 35.7938 1028.39 45.1919 Z" fill="#000000" fill-rule="nonzero" fill-opacity="1" /><path clip-path="url(#clip040)" d="M1075.91 28.9478 L1075.91 35.9153 Q1072.75 34.1734 1069.55 33.3227 Q1066.39 32.4315 1063.15 32.4315 Q1055.9 32.4315 1051.89 37.0496 Q1047.87 41.6271 1047.87 49.9314 Q1047.87 58.2358 1051.89 62.8538 Q1055.9 67.4314 1063.15 67.4314 Q1066.39 67.4314 1069.55 66.5807 Q1072.75 65.6895 1075.91 63.9476 L1075.91 70.8341 Q1072.79 72.2924 1069.43 73.0216 Q1066.1 73.7508 1062.34 73.7508 Q1052.09 73.7508 1046.05 67.3098 Q1040.02 60.8689 1040.02 49.9314 Q1040.02 38.832 1046.09 32.472 Q1052.21 26.1121 1062.82 26.1121 Q1066.27 26.1121 1069.55 26.8413 Q1072.83 27.5299 1075.91 28.9478 Z" fill="#000000" fill-rule="nonzero" fill-opacity="1" /><path clip-path="url(#clip040)" d="M1127.68 48.0275 L1127.68 51.6733 L1093.41 51.6733 Q1093.89 59.3701 1098.03 63.421 Q1102.2 67.4314 1109.61 67.4314 Q1113.9 67.4314 1117.91 66.3781 Q1121.97 65.3249 1125.94 63.2184 L1125.94 70.267 Q1121.93 71.9684 1117.71 72.8596 Q1113.5 73.7508 1109.17 73.7508 Q1098.31 73.7508 1091.95 67.4314 Q1085.63 61.1119 1085.63 50.3365 Q1085.63 39.1965 1091.62 32.6746 Q1097.66 26.1121 1107.87 26.1121 Q1117.02 26.1121 1122.33 32.0264 Q1127.68 37.9003 1127.68 48.0275 M1120.22 45.84 Q1120.14 39.7232 1116.78 36.0774 Q1113.46 32.4315 1107.95 32.4315 Q1101.71 32.4315 1097.94 35.9558 Q1094.22 39.4801 1093.65 45.8805 L1120.22 45.84 Z" fill="#000000" fill-rule="nonzero" fill-opacity="1" /><path clip-path="url(#clip040)" d="M1160.94 27.2059 L1168.83 27.2059 L1183.01 65.2844 L1197.19 27.2059 L1205.09 27.2059 L1188.08 72.576 L1177.95 72.576 L1160.94 27.2059 Z" fill="#000000" fill-rule="nonzero" fill-opacity="1" /><path clip-path="url(#clip040)" d="M1244.3 28.5427 L1244.3 35.5912 Q1241.14 33.9709 1237.74 33.1607 Q1234.34 32.3505 1230.69 32.3505 Q1225.14 32.3505 1222.35 34.0519 Q1219.59 35.7533 1219.59 39.156 Q1219.59 41.7486 1221.58 43.2475 Q1223.56 44.7058 1229.56 46.0426 L1232.11 46.6097 Q1240.05 48.3111 1243.37 51.4303 Q1246.73 54.509 1246.73 60.0587 Q1246.73 66.3781 1241.71 70.0644 Q1236.73 73.7508 1227.98 73.7508 Q1224.33 73.7508 1220.36 73.0216 Q1216.43 72.3329 1212.06 70.9151 L1212.06 63.2184 Q1216.19 65.3654 1220.2 66.4591 Q1224.21 67.5124 1228.14 67.5124 Q1233.41 67.5124 1236.24 65.73 Q1239.08 63.9071 1239.08 60.6258 Q1239.08 57.5877 1237.01 55.9673 Q1234.99 54.3469 1228.06 52.8481 L1225.47 52.2405 Q1218.54 50.7821 1215.46 47.7845 Q1212.38 44.7463 1212.38 39.4801 Q1212.38 33.0797 1216.92 29.5959 Q1221.46 26.1121 1229.8 26.1121 Q1233.93 26.1121 1237.58 26.7198 Q1241.22 27.3274 1244.3 28.5427 Z" fill="#000000" fill-rule="nonzero" fill-opacity="1" /><path clip-path="url(#clip040)" d="M1317.62 28.9478 L1317.62 35.9153 Q1314.46 34.1734 1311.26 33.3227 Q1308.1 32.4315 1304.86 32.4315 Q1297.61 32.4315 1293.6 37.0496 Q1289.59 41.6271 1289.59 49.9314 Q1289.59 58.2358 1293.6 62.8538 Q1297.61 67.4314 1304.86 67.4314 Q1308.1 67.4314 1311.26 66.5807 Q1314.46 65.6895 1317.62 63.9476 L1317.62 70.8341 Q1314.51 72.2924 1311.14 73.0216 Q1307.82 73.7508 1304.05 73.7508 Q1293.81 73.7508 1287.77 67.3098 Q1281.73 60.8689 1281.73 49.9314 Q1281.73 38.832 1287.81 32.472 Q1293.93 26.1121 1304.54 26.1121 Q1307.98 26.1121 1311.26 26.8413 Q1314.55 27.5299 1317.62 28.9478 Z" fill="#000000" fill-rule="nonzero" fill-opacity="1" /><path clip-path="url(#clip040)" d="M1348.17 32.4315 Q1342.17 32.4315 1338.69 37.1306 Q1335.21 41.7891 1335.21 49.9314 Q1335.21 58.0738 1338.65 62.7728 Q1342.13 67.4314 1348.17 67.4314 Q1354.12 67.4314 1357.61 62.7323 Q1361.09 58.0333 1361.09 49.9314 Q1361.09 41.8701 1357.61 37.1711 Q1354.12 32.4315 1348.17 32.4315 M1348.17 26.1121 Q1357.89 26.1121 1363.44 32.4315 Q1368.99 38.7509 1368.99 49.9314 Q1368.99 61.0714 1363.44 67.4314 Q1357.89 73.7508 1348.17 73.7508 Q1338.41 73.7508 1332.86 67.4314 Q1327.35 61.0714 1327.35 49.9314 Q1327.35 38.7509 1332.86 32.4315 Q1338.41 26.1121 1348.17 26.1121 Z" fill="#000000" fill-rule="nonzero" fill-opacity="1" /><path clip-path="url(#clip040)" d="M1401.96 49.7694 Q1392.93 49.7694 1389.45 51.8354 Q1385.96 53.9013 1385.96 58.8839 Q1385.96 62.8538 1388.56 65.2034 Q1391.19 67.5124 1395.69 67.5124 Q1401.88 67.5124 1405.61 63.1374 Q1409.38 58.7219 1409.38 51.4303 L1409.38 49.7694 L1401.96 49.7694 M1416.83 46.6907 L1416.83 72.576 L1409.38 72.576 L1409.38 65.6895 Q1406.83 69.8214 1403.02 71.8063 Q1399.21 73.7508 1393.7 73.7508 Q1386.73 73.7508 1382.6 69.8619 Q1378.51 65.9325 1378.51 59.3701 Q1378.51 51.7138 1383.61 47.825 Q1388.76 43.9361 1398.93 43.9361 L1409.38 43.9361 L1409.38 43.2069 Q1409.38 38.0623 1405.97 35.2672 Q1402.61 32.4315 1396.5 32.4315 Q1392.61 32.4315 1388.92 33.3632 Q1385.23 34.295 1381.83 36.1584 L1381.83 29.2718 Q1385.92 27.692 1389.77 26.9223 Q1393.62 26.1121 1397.27 26.1121 Q1407.11 26.1121 1411.97 31.2163 Q1416.83 36.3204 1416.83 46.6907 Z" fill="#000000" fill-rule="nonzero" fill-opacity="1" /><path clip-path="url(#clip040)" d="M1458.47 34.1734 Q1457.22 33.4443 1455.72 33.1202 Q1454.26 32.7556 1452.48 32.7556 Q1446.16 32.7556 1442.76 36.8875 Q1439.39 40.9789 1439.39 48.6757 L1439.39 72.576 L1431.9 72.576 L1431.9 27.2059 L1439.39 27.2059 L1439.39 34.2544 Q1441.74 30.1225 1445.51 28.1376 Q1449.28 26.1121 1454.67 26.1121 Q1455.44 26.1121 1456.37 26.2337 Q1457.3 26.3147 1458.43 26.5172 L1458.47 34.1734 Z" fill="#000000" fill-rule="nonzero" fill-opacity="1" /><path clip-path="url(#clip040)" d="M1495.22 28.5427 L1495.22 35.5912 Q1492.06 33.9709 1488.65 33.1607 Q1485.25 32.3505 1481.61 32.3505 Q1476.06 32.3505 1473.26 34.0519 Q1470.51 35.7533 1470.51 39.156 Q1470.51 41.7486 1472.49 43.2475 Q1474.48 44.7058 1480.47 46.0426 L1483.02 46.6097 Q1490.96 48.3111 1494.28 51.4303 Q1497.65 54.509 1497.65 60.0587 Q1497.65 66.3781 1492.62 70.0644 Q1487.64 73.7508 1478.89 73.7508 Q1475.25 73.7508 1471.28 73.0216 Q1467.35 72.3329 1462.97 70.9151 L1462.97 63.2184 Q1467.1 65.3654 1471.11 66.4591 Q1475.12 67.5124 1479.05 67.5124 Q1484.32 67.5124 1487.15 65.73 Q1489.99 63.9071 1489.99 60.6258 Q1489.99 57.5877 1487.92 55.9673 Q1485.9 54.3469 1478.97 52.8481 L1476.38 52.2405 Q1469.45 50.7821 1466.37 47.7845 Q1463.3 44.7463 1463.3 39.4801 Q1463.3 33.0797 1467.83 29.5959 Q1472.37 26.1121 1480.71 26.1121 Q1484.85 26.1121 1488.49 26.7198 Q1492.14 27.3274 1495.22 28.5427 Z" fill="#000000" fill-rule="nonzero" fill-opacity="1" /><path clip-path="url(#clip040)" d="M1548.32 48.0275 L1548.32 51.6733 L1514.05 51.6733 Q1514.54 59.3701 1518.67 63.421 Q1522.84 67.4314 1530.26 67.4314 Q1534.55 67.4314 1538.56 66.3781 Q1542.61 65.3249 1546.58 63.2184 L1546.58 70.267 Q1542.57 71.9684 1538.36 72.8596 Q1534.15 73.7508 1529.81 73.7508 Q1518.95 73.7508 1512.59 67.4314 Q1506.28 61.1119 1506.28 50.3365 Q1506.28 39.1965 1512.27 32.6746 Q1518.31 26.1121 1528.51 26.1121 Q1537.67 26.1121 1542.98 32.0264 Q1548.32 37.9003 1548.32 48.0275 M1540.87 45.84 Q1540.79 39.7232 1537.43 36.0774 Q1534.1 32.4315 1528.6 32.4315 Q1522.36 32.4315 1518.59 35.9558 Q1514.86 39.4801 1514.3 45.8805 L1540.87 45.84 Z" fill="#000000" fill-rule="nonzero" fill-opacity="1" /><path clip-path="url(#clip040)" d="M1616.78 49.3643 Q1616.78 41.2625 1613.42 36.8065 Q1610.1 32.3505 1604.06 32.3505 Q1598.07 32.3505 1594.71 36.8065 Q1591.38 41.2625 1591.38 49.3643 Q1591.38 57.4256 1594.71 61.8816 Q1598.07 66.3376 1604.06 66.3376 Q1610.1 66.3376 1613.42 61.8816 Q1616.78 57.4256 1616.78 49.3643 M1624.24 66.9452 Q1624.24 78.5308 1619.09 84.1616 Q1613.95 89.8329 1603.33 89.8329 Q1599.41 89.8329 1595.92 89.2252 Q1592.44 88.6581 1589.16 87.4428 L1589.16 80.1917 Q1592.44 81.9741 1595.64 82.8248 Q1598.84 83.6755 1602.16 83.6755 Q1609.49 83.6755 1613.14 79.8271 Q1616.78 76.0193 1616.78 68.282 L1616.78 64.5957 Q1614.47 68.6061 1610.87 70.5911 Q1607.26 72.576 1602.24 72.576 Q1593.9 72.576 1588.79 66.2161 Q1583.69 59.8562 1583.69 49.3643 Q1583.69 38.832 1588.79 32.472 Q1593.9 26.1121 1602.24 26.1121 Q1607.26 26.1121 1610.87 28.0971 Q1614.47 30.082 1616.78 34.0924 L1616.78 27.2059 L1624.24 27.2059 L1624.24 66.9452 Z" fill="#000000" fill-rule="nonzero" fill-opacity="1" /><path clip-path="url(#clip040)" d="M1665.88 34.1734 Q1664.63 33.4443 1663.13 33.1202 Q1661.67 32.7556 1659.89 32.7556 Q1653.57 32.7556 1650.16 36.8875 Q1646.8 40.9789 1646.8 48.6757 L1646.8 72.576 L1639.31 72.576 L1639.31 27.2059 L1646.8 27.2059 L1646.8 34.2544 Q1649.15 30.1225 1652.92 28.1376 Q1656.69 26.1121 1662.07 26.1121 Q1662.84 26.1121 1663.77 26.2337 Q1664.71 26.3147 1665.84 26.5172 L1665.88 34.1734 Z" fill="#000000" fill-rule="nonzero" fill-opacity="1" /><path clip-path="url(#clip040)" d="M1694.32 49.7694 Q1685.28 49.7694 1681.8 51.8354 Q1678.32 53.9013 1678.32 58.8839 Q1678.32 62.8538 1680.91 65.2034 Q1683.54 67.5124 1688.04 67.5124 Q1694.24 67.5124 1697.96 63.1374 Q1701.73 58.7219 1701.73 51.4303 L1701.73 49.7694 L1694.32 49.7694 M1709.18 46.6907 L1709.18 72.576 L1701.73 72.576 L1701.73 65.6895 Q1699.18 69.8214 1695.37 71.8063 Q1691.56 73.7508 1686.05 73.7508 Q1679.09 73.7508 1674.95 69.8619 Q1670.86 65.9325 1670.86 59.3701 Q1670.86 51.7138 1675.97 47.825 Q1681.11 43.9361 1691.28 43.9361 L1701.73 43.9361 L1701.73 43.2069 Q1701.73 38.0623 1698.33 35.2672 Q1694.97 32.4315 1688.85 32.4315 Q1684.96 32.4315 1681.27 33.3632 Q1677.59 34.295 1674.19 36.1584 L1674.19 29.2718 Q1678.28 27.692 1682.12 26.9223 Q1685.97 26.1121 1689.62 26.1121 Q1699.46 26.1121 1704.32 31.2163 Q1709.18 36.3204 1709.18 46.6907 Z" fill="#000000" fill-rule="nonzero" fill-opacity="1" /><path clip-path="url(#clip040)" d="M1724.54 27.2059 L1731.99 27.2059 L1731.99 72.576 L1724.54 72.576 L1724.54 27.2059 M1724.54 9.54393 L1731.99 9.54393 L1731.99 18.9825 L1724.54 18.9825 L1724.54 9.54393 Z" fill="#000000" fill-rule="nonzero" fill-opacity="1" /><path clip-path="url(#clip040)" d="M1785.3 45.1919 L1785.3 72.576 L1777.85 72.576 L1777.85 45.4349 Q1777.85 38.994 1775.34 35.7938 Q1772.82 32.5936 1767.8 32.5936 Q1761.77 32.5936 1758.28 36.4419 Q1754.8 40.2903 1754.8 46.9338 L1754.8 72.576 L1747.3 72.576 L1747.3 27.2059 L1754.8 27.2059 L1754.8 34.2544 Q1757.47 30.163 1761.08 28.1376 Q1764.72 26.1121 1769.46 26.1121 Q1777.28 26.1121 1781.29 30.9732 Q1785.3 35.7938 1785.3 45.1919 Z" fill="#000000" fill-rule="nonzero" fill-opacity="1" /><path clip-path="url(#clip040)" d="M1800.17 27.2059 L1807.62 27.2059 L1807.62 72.576 L1800.17 72.576 L1800.17 27.2059 M1800.17 9.54393 L1807.62 9.54393 L1807.62 18.9825 L1800.17 18.9825 L1800.17 9.54393 Z" fill="#000000" fill-rule="nonzero" fill-opacity="1" /><path clip-path="url(#clip040)" d="M1860.93 45.1919 L1860.93 72.576 L1853.48 72.576 L1853.48 45.4349 Q1853.48 38.994 1850.97 35.7938 Q1848.46 32.5936 1843.43 32.5936 Q1837.4 32.5936 1833.91 36.4419 Q1830.43 40.2903 1830.43 46.9338 L1830.43 72.576 L1822.93 72.576 L1822.93 27.2059 L1830.43 27.2059 L1830.43 34.2544 Q1833.1 30.163 1836.71 28.1376 Q1840.35 26.1121 1845.09 26.1121 Q1852.91 26.1121 1856.92 30.9732 Q1860.93 35.7938 1860.93 45.1919 Z" fill="#000000" fill-rule="nonzero" fill-opacity="1" /><path clip-path="url(#clip040)" d="M1905.65 49.3643 Q1905.65 41.2625 1902.29 36.8065 Q1898.97 32.3505 1892.93 32.3505 Q1886.94 32.3505 1883.58 36.8065 Q1880.25 41.2625 1880.25 49.3643 Q1880.25 57.4256 1883.58 61.8816 Q1886.94 66.3376 1892.93 66.3376 Q1898.97 66.3376 1902.29 61.8816 Q1905.65 57.4256 1905.65 49.3643 M1913.11 66.9452 Q1913.11 78.5308 1907.96 84.1616 Q1902.82 89.8329 1892.2 89.8329 Q1888.28 89.8329 1884.79 89.2252 Q1881.31 88.6581 1878.03 87.4428 L1878.03 80.1917 Q1881.31 81.9741 1884.51 82.8248 Q1887.71 83.6755 1891.03 83.6755 Q1898.36 83.6755 1902.01 79.8271 Q1905.65 76.0193 1905.65 68.282 L1905.65 64.5957 Q1903.34 68.6061 1899.74 70.5911 Q1896.13 72.576 1891.11 72.576 Q1882.77 72.576 1877.66 66.2161 Q1872.56 59.8562 1872.56 49.3643 Q1872.56 38.832 1877.66 32.472 Q1882.77 26.1121 1891.11 26.1121 Q1896.13 26.1121 1899.74 28.0971 Q1903.34 30.082 1905.65 34.0924 L1905.65 27.2059 L1913.11 27.2059 L1913.11 66.9452 Z" fill="#000000" fill-rule="nonzero" fill-opacity="1" /><polyline clip-path="url(#clip042)" style="stroke:#009af9; stroke-linecap:round; stroke-linejoin:round; stroke-width:8; stroke-opacity:1; fill:none" points="280.231,1168.59 320.676,1155.54 371.233,1136.75 472.347,1097.89 775.688,987.917 1281.26,827.1 1786.82,588.977 2292.39,419.965 "/>
<path clip-path="url(#clip042)" d="M280.231 1184.59 L268.919 1179.9 L264.231 1168.59 L268.919 1157.28 L280.231 1152.59 L291.543 1157.28 L296.231 1168.59 L291.543 1179.9 Z" fill="#009af9" fill-rule="evenodd" fill-opacity="1" stroke="#000000" stroke-opacity="1" stroke-width="3.2"/>
<path clip-path="url(#clip042)" d="M320.676 1171.54 L309.364 1166.86 L304.676 1155.54 L309.364 1144.23 L320.676 1139.54 L331.988 1144.23 L336.676 1155.54 L331.988 1166.86 Z" fill="#009af9" fill-rule="evenodd" fill-opacity="1" stroke="#000000" stroke-opacity="1" stroke-width="3.2"/>
<path clip-path="url(#clip042)" d="M371.233 1152.75 L359.921 1148.06 L355.233 1136.75 L359.921 1125.44 L371.233 1120.75 L382.545 1125.44 L387.233 1136.75 L382.545 1148.06 Z" fill="#009af9" fill-rule="evenodd" fill-opacity="1" stroke="#000000" stroke-opacity="1" stroke-width="3.2"/>
<path clip-path="url(#clip042)" d="M472.347 1113.89 L461.035 1109.21 L456.347 1097.89 L461.035 1086.58 L472.347 1081.89 L483.659 1086.58 L488.347 1097.89 L483.659 1109.21 Z" fill="#009af9" fill-rule="evenodd" fill-opacity="1" stroke="#000000" stroke-opacity="1" stroke-width="3.2"/>
<path clip-path="url(#clip042)" d="M775.688 1003.92 L764.376 999.229 L759.688 987.917 L764.376 976.605 L775.688 971.917 L787 976.605 L791.688 987.917 L787 999.229 Z" fill="#009af9" fill-rule="evenodd" fill-opacity="1" stroke="#000000" stroke-opacity="1" stroke-width="3.2"/>
<path clip-path="url(#clip042)" d="M1281.26 843.1 L1269.94 838.412 L1265.26 827.1 L1269.94 815.788 L1281.26 811.1 L1292.57 815.788 L1297.26 827.1 L1292.57 838.412 Z" fill="#009af9" fill-rule="evenodd" fill-opacity="1" stroke="#000000" stroke-opacity="1" stroke-width="3.2"/>
<path clip-path="url(#clip042)" d="M1786.82 604.977 L1775.51 600.289 L1770.82 588.977 L1775.51 577.665 L1786.82 572.977 L1798.14 577.665 L1802.82 588.977 L1798.14 600.289 Z" fill="#009af9" fill-rule="evenodd" fill-opacity="1" stroke="#000000" stroke-opacity="1" stroke-width="3.2"/>
<path clip-path="url(#clip042)" d="M2292.39 435.965 L2281.08 431.277 L2276.39 419.965 L2281.08 408.653 L2292.39 403.965 L2303.7 408.653 L2308.39 419.965 L2303.7 431.277 Z" fill="#009af9" fill-rule="evenodd" fill-opacity="1" stroke="#000000" stroke-opacity="1" stroke-width="3.2"/>
<polyline clip-path="url(#clip042)" style="stroke:#e26f46; stroke-linecap:round; stroke-linejoin:round; stroke-width:8; stroke-opacity:1; fill:none" points="280.231,1386.4 320.676,1327.48 371.233,1268.21 472.347,1174.06 775.688,957.656 1281.26,697.754 1786.82,389.415 2292.39,160.256 "/>
<path clip-path="url(#clip042)" d="M280.231 1402.4 L268.919 1397.71 L264.231 1386.4 L268.919 1375.08 L280.231 1370.4 L291.543 1375.08 L296.231 1386.4 L291.543 1397.71 Z" fill="#e26f46" fill-rule="evenodd" fill-opacity="1" stroke="#000000" stroke-opacity="1" stroke-width="3.2"/>
<path clip-path="url(#clip042)" d="M320.676 1343.48 L309.364 1338.8 L304.676 1327.48 L309.364 1316.17 L320.676 1311.48 L331.988 1316.17 L336.676 1327.48 L331.988 1338.8 Z" fill="#e26f46" fill-rule="evenodd" fill-opacity="1" stroke="#000000" stroke-opacity="1" stroke-width="3.2"/>
<path clip-path="url(#clip042)" d="M371.233 1284.21 L359.921 1279.52 L355.233 1268.21 L359.921 1256.9 L371.233 1252.21 L382.545 1256.9 L387.233 1268.21 L382.545 1279.52 Z" fill="#e26f46" fill-rule="evenodd" fill-opacity="1" stroke="#000000" stroke-opacity="1" stroke-width="3.2"/>
<path clip-path="url(#clip042)" d="M472.347 1190.06 L461.035 1185.37 L456.347 1174.06 L461.035 1162.74 L472.347 1158.06 L483.659 1162.74 L488.347 1174.06 L483.659 1185.37 Z" fill="#e26f46" fill-rule="evenodd" fill-opacity="1" stroke="#000000" stroke-opacity="1" stroke-width="3.2"/>
<path clip-path="url(#clip042)" d="M775.688 973.656 L764.376 968.968 L759.688 957.656 L764.376 946.344 L775.688 941.656 L787 946.344 L791.688 957.656 L787 968.968 Z" fill="#e26f46" fill-rule="evenodd" fill-opacity="1" stroke="#000000" stroke-opacity="1" stroke-width="3.2"/>
<path clip-path="url(#clip042)" d="M1281.26 713.754 L1269.94 709.066 L1265.26 697.754 L1269.94 686.442 L1281.26 681.754 L1292.57 686.442 L1297.26 697.754 L1292.57 709.066 Z" fill="#e26f46" fill-rule="evenodd" fill-opacity="1" stroke="#000000" stroke-opacity="1" stroke-width="3.2"/>
<path clip-path="url(#clip042)" d="M1786.82 405.415 L1775.51 400.727 L1770.82 389.415 L1775.51 378.103 L1786.82 373.415 L1798.14 378.103 L1802.82 389.415 L1798.14 400.727 Z" fill="#e26f46" fill-rule="evenodd" fill-opacity="1" stroke="#000000" stroke-opacity="1" stroke-width="3.2"/>
<path clip-path="url(#clip042)" d="M2292.39 176.256 L2281.08 171.568 L2276.39 160.256 L2281.08 148.944 L2292.39 144.256 L2303.7 148.944 L2308.39 160.256 L2303.7 171.568 Z" fill="#e26f46" fill-rule="evenodd" fill-opacity="1" stroke="#000000" stroke-opacity="1" stroke-width="3.2"/>
<path clip-path="url(#clip040)" d="M290.963 322.316 L814.574 322.316 L814.574 166.796 L290.963 166.796  Z" fill="#ffffff" fill-rule="evenodd" fill-opacity="1"/>
<polyline clip-path="url(#clip040)" style="stroke:#000000; stroke-linecap:round; stroke-linejoin:round; stroke-width:4; stroke-opacity:1; fill:none" points="290.963,322.316 814.574,322.316 814.574,166.796 290.963,166.796 290.963,322.316 "/>
<polyline clip-path="url(#clip040)" style="stroke:#009af9; stroke-linecap:round; stroke-linejoin:round; stroke-width:8; stroke-opacity:1; fill:none" points="314.661,218.636 456.854,218.636 "/>
<path clip-path="url(#clip040)" d="M385.758 240.579 L370.244 234.15 L363.814 218.636 L370.244 203.122 L385.758 196.692 L401.272 203.122 L407.701 218.636 L401.272 234.15 Z" fill="#009af9" fill-rule="evenodd" fill-opacity="1" stroke="#000000" stroke-opacity="1" stroke-width="4.55111"/>
<path clip-path="url(#clip040)" d="M502.266 220.268 L502.266 235.916 L498.006 235.916 L498.006 220.407 Q498.006 216.726 496.571 214.897 Q495.136 213.069 492.266 213.069 Q488.817 213.069 486.826 215.268 Q484.835 217.467 484.835 221.263 L484.835 235.916 L480.553 235.916 L480.553 209.99 L484.835 209.99 L484.835 214.018 Q486.363 211.68 488.423 210.522 Q490.506 209.365 493.215 209.365 Q497.682 209.365 499.974 212.143 Q502.266 214.897 502.266 220.268 Z" fill="#000000" fill-rule="nonzero" fill-opacity="1" /><path clip-path="url(#clip040)" d="M520.807 212.976 Q517.381 212.976 515.391 215.661 Q513.4 218.323 513.4 222.976 Q513.4 227.629 515.367 230.314 Q517.358 232.976 520.807 232.976 Q524.21 232.976 526.201 230.291 Q528.191 227.606 528.191 222.976 Q528.191 218.37 526.201 215.684 Q524.21 212.976 520.807 212.976 M520.807 209.365 Q526.363 209.365 529.534 212.976 Q532.705 216.587 532.705 222.976 Q532.705 229.342 529.534 232.976 Q526.363 236.587 520.807 236.587 Q515.229 236.587 512.057 232.976 Q508.909 229.342 508.909 222.976 Q508.909 216.587 512.057 212.976 Q515.229 209.365 520.807 209.365 Z" fill="#000000" fill-rule="nonzero" fill-opacity="1" /><path clip-path="url(#clip040)" d="M575.02 214.967 Q576.617 212.096 578.839 210.731 Q581.061 209.365 584.071 209.365 Q588.122 209.365 590.321 212.212 Q592.52 215.036 592.52 220.268 L592.52 235.916 L588.237 235.916 L588.237 220.407 Q588.237 216.68 586.918 214.874 Q585.599 213.069 582.89 213.069 Q579.58 213.069 577.659 215.268 Q575.737 217.467 575.737 221.263 L575.737 235.916 L571.455 235.916 L571.455 220.407 Q571.455 216.657 570.136 214.874 Q568.816 213.069 566.062 213.069 Q562.798 213.069 560.876 215.291 Q558.955 217.49 558.955 221.263 L558.955 235.916 L554.673 235.916 L554.673 209.99 L558.955 209.99 L558.955 214.018 Q560.413 211.633 562.45 210.499 Q564.488 209.365 567.288 209.365 Q570.112 209.365 572.08 210.8 Q574.071 212.235 575.02 214.967 Z" fill="#000000" fill-rule="nonzero" fill-opacity="1" /><path clip-path="url(#clip040)" d="M623.191 221.888 L623.191 223.971 L603.608 223.971 Q603.885 228.369 606.247 230.684 Q608.631 232.976 612.867 232.976 Q615.321 232.976 617.612 232.374 Q619.927 231.772 622.196 230.569 L622.196 234.596 Q619.904 235.568 617.496 236.078 Q615.089 236.587 612.612 236.587 Q606.409 236.587 602.774 232.976 Q599.163 229.365 599.163 223.207 Q599.163 216.842 602.589 213.115 Q606.038 209.365 611.872 209.365 Q617.103 209.365 620.135 212.745 Q623.191 216.101 623.191 221.888 M618.932 220.638 Q618.885 217.143 616.964 215.059 Q615.066 212.976 611.918 212.976 Q608.353 212.976 606.2 214.99 Q604.071 217.004 603.747 220.661 L618.932 220.638 Z" fill="#000000" fill-rule="nonzero" fill-opacity="1" /><path clip-path="url(#clip040)" d="M650.367 214.967 Q651.964 212.096 654.186 210.731 Q656.408 209.365 659.418 209.365 Q663.468 209.365 665.668 212.212 Q667.867 215.036 667.867 220.268 L667.867 235.916 L663.584 235.916 L663.584 220.407 Q663.584 216.68 662.265 214.874 Q660.945 213.069 658.237 213.069 Q654.927 213.069 653.006 215.268 Q651.084 217.467 651.084 221.263 L651.084 235.916 L646.802 235.916 L646.802 220.407 Q646.802 216.657 645.482 214.874 Q644.163 213.069 641.408 213.069 Q638.145 213.069 636.223 215.291 Q634.302 217.49 634.302 221.263 L634.302 235.916 L630.02 235.916 L630.02 209.99 L634.302 209.99 L634.302 214.018 Q635.76 211.633 637.797 210.499 Q639.834 209.365 642.635 209.365 Q645.459 209.365 647.427 210.8 Q649.418 212.235 650.367 214.967 Z" fill="#000000" fill-rule="nonzero" fill-opacity="1" /><path clip-path="url(#clip040)" d="M686.408 212.976 Q682.982 212.976 680.992 215.661 Q679.001 218.323 679.001 222.976 Q679.001 227.629 680.968 230.314 Q682.959 232.976 686.408 232.976 Q689.811 232.976 691.802 230.291 Q693.792 227.606 693.792 222.976 Q693.792 218.37 691.802 215.684 Q689.811 212.976 686.408 212.976 M686.408 209.365 Q691.964 209.365 695.135 212.976 Q698.306 216.587 698.306 222.976 Q698.306 229.342 695.135 232.976 Q691.964 236.587 686.408 236.587 Q680.829 236.587 677.658 232.976 Q674.51 229.342 674.51 222.976 Q674.51 216.587 677.658 212.976 Q680.829 209.365 686.408 209.365 Z" fill="#000000" fill-rule="nonzero" fill-opacity="1" /><path clip-path="url(#clip040)" d="M720.389 213.971 Q719.672 213.555 718.815 213.37 Q717.982 213.161 716.964 213.161 Q713.352 213.161 711.408 215.522 Q709.487 217.86 709.487 222.258 L709.487 235.916 L705.204 235.916 L705.204 209.99 L709.487 209.99 L709.487 214.018 Q710.829 211.657 712.982 210.522 Q715.135 209.365 718.214 209.365 Q718.653 209.365 719.186 209.434 Q719.718 209.481 720.366 209.596 L720.389 213.971 Z" fill="#000000" fill-rule="nonzero" fill-opacity="1" /><path clip-path="url(#clip040)" d="M735.644 238.323 Q733.838 242.953 732.126 244.365 Q730.413 245.777 727.542 245.777 L724.139 245.777 L724.139 242.212 L726.639 242.212 Q728.399 242.212 729.371 241.379 Q730.343 240.545 731.524 237.443 L732.288 235.499 L721.801 209.99 L726.315 209.99 L734.417 230.268 L742.519 209.99 L747.033 209.99 L735.644 238.323 Z" fill="#000000" fill-rule="nonzero" fill-opacity="1" /><polyline clip-path="url(#clip040)" style="stroke:#e26f46; stroke-linecap:round; stroke-linejoin:round; stroke-width:8; stroke-opacity:1; fill:none" points="314.661,270.476 456.854,270.476 "/>
<path clip-path="url(#clip040)" d="M385.758 292.419 L370.244 285.99 L363.814 270.476 L370.244 254.962 L385.758 248.532 L401.272 254.962 L407.701 270.476 L401.272 285.99 Z" fill="#e26f46" fill-rule="evenodd" fill-opacity="1" stroke="#000000" stroke-opacity="1" stroke-width="4.55111"/>
<path clip-path="url(#clip040)" d="M480.553 261.83 L484.812 261.83 L490.136 282.061 L495.437 261.83 L500.46 261.83 L505.784 282.061 L511.085 261.83 L515.344 261.83 L508.562 287.756 L503.539 287.756 L497.96 266.506 L492.358 287.756 L487.335 287.756 L480.553 261.83 Z" fill="#000000" fill-rule="nonzero" fill-opacity="1" /><path clip-path="url(#clip040)" d="M521.803 261.83 L526.062 261.83 L526.062 287.756 L521.803 287.756 L521.803 261.83 M521.803 251.737 L526.062 251.737 L526.062 257.131 L521.803 257.131 L521.803 251.737 Z" fill="#000000" fill-rule="nonzero" fill-opacity="1" /><path clip-path="url(#clip040)" d="M539.187 254.469 L539.187 261.83 L547.96 261.83 L547.96 265.14 L539.187 265.14 L539.187 279.214 Q539.187 282.385 540.043 283.288 Q540.923 284.191 543.585 284.191 L547.96 284.191 L547.96 287.756 L543.585 287.756 Q538.654 287.756 536.779 285.927 Q534.904 284.075 534.904 279.214 L534.904 265.14 L531.779 265.14 L531.779 261.83 L534.904 261.83 L534.904 254.469 L539.187 254.469 Z" fill="#000000" fill-rule="nonzero" fill-opacity="1" /><path clip-path="url(#clip040)" d="M575.112 272.108 L575.112 287.756 L570.853 287.756 L570.853 272.247 Q570.853 268.566 569.418 266.737 Q567.983 264.909 565.113 264.909 Q561.663 264.909 559.673 267.108 Q557.682 269.307 557.682 273.103 L557.682 287.756 L553.4 287.756 L553.4 251.737 L557.682 251.737 L557.682 265.858 Q559.21 263.52 561.27 262.362 Q563.353 261.205 566.062 261.205 Q570.529 261.205 572.821 263.983 Q575.112 266.737 575.112 272.108 Z" fill="#000000" fill-rule="nonzero" fill-opacity="1" /><path clip-path="url(#clip040)" d="M618.862 266.807 Q620.459 263.936 622.682 262.571 Q624.904 261.205 627.913 261.205 Q631.964 261.205 634.163 264.052 Q636.362 266.876 636.362 272.108 L636.362 287.756 L632.08 287.756 L632.08 272.247 Q632.08 268.52 630.76 266.714 Q629.441 264.909 626.733 264.909 Q623.422 264.909 621.501 267.108 Q619.58 269.307 619.58 273.103 L619.58 287.756 L615.297 287.756 L615.297 272.247 Q615.297 268.497 613.978 266.714 Q612.659 264.909 609.904 264.909 Q606.64 264.909 604.719 267.131 Q602.797 269.33 602.797 273.103 L602.797 287.756 L598.515 287.756 L598.515 261.83 L602.797 261.83 L602.797 265.858 Q604.256 263.473 606.293 262.339 Q608.33 261.205 611.131 261.205 Q613.955 261.205 615.922 262.64 Q617.913 264.075 618.862 266.807 Z" fill="#000000" fill-rule="nonzero" fill-opacity="1" /><path clip-path="url(#clip040)" d="M667.033 273.728 L667.033 275.811 L647.45 275.811 Q647.728 280.209 650.089 282.524 Q652.473 284.816 656.709 284.816 Q659.163 284.816 661.455 284.214 Q663.769 283.612 666.038 282.409 L666.038 286.436 Q663.746 287.408 661.339 287.918 Q658.931 288.427 656.455 288.427 Q650.251 288.427 646.617 284.816 Q643.006 281.205 643.006 275.047 Q643.006 268.682 646.432 264.955 Q649.881 261.205 655.714 261.205 Q660.945 261.205 663.978 264.585 Q667.033 267.941 667.033 273.728 M662.774 272.478 Q662.728 268.983 660.806 266.899 Q658.908 264.816 655.76 264.816 Q652.195 264.816 650.043 266.83 Q647.913 268.844 647.589 272.501 L662.774 272.478 Z" fill="#000000" fill-rule="nonzero" fill-opacity="1" /><path clip-path="url(#clip040)" d="M694.209 266.807 Q695.806 263.936 698.028 262.571 Q700.251 261.205 703.26 261.205 Q707.311 261.205 709.51 264.052 Q711.709 266.876 711.709 272.108 L711.709 287.756 L707.427 287.756 L707.427 272.247 Q707.427 268.52 706.107 266.714 Q704.788 264.909 702.079 264.909 Q698.769 264.909 696.848 267.108 Q694.927 269.307 694.927 273.103 L694.927 287.756 L690.644 287.756 L690.644 272.247 Q690.644 268.497 689.325 266.714 Q688.005 264.909 685.251 264.909 Q681.987 264.909 680.066 267.131 Q678.144 269.33 678.144 273.103 L678.144 287.756 L673.862 287.756 L673.862 261.83 L678.144 261.83 L678.144 265.858 Q679.603 263.473 681.64 262.339 Q683.677 261.205 686.478 261.205 Q689.302 261.205 691.269 262.64 Q693.26 264.075 694.209 266.807 Z" fill="#000000" fill-rule="nonzero" fill-opacity="1" /><path clip-path="url(#clip040)" d="M730.251 264.816 Q726.825 264.816 724.834 267.501 Q722.843 270.163 722.843 274.816 Q722.843 279.469 724.811 282.154 Q726.801 284.816 730.251 284.816 Q733.653 284.816 735.644 282.131 Q737.635 279.446 737.635 274.816 Q737.635 270.21 735.644 267.524 Q733.653 264.816 730.251 264.816 M730.251 261.205 Q735.806 261.205 738.977 264.816 Q742.149 268.427 742.149 274.816 Q742.149 281.182 738.977 284.816 Q735.806 288.427 730.251 288.427 Q724.672 288.427 721.501 284.816 Q718.352 281.182 718.352 274.816 Q718.352 268.427 721.501 264.816 Q724.672 261.205 730.251 261.205 Z" fill="#000000" fill-rule="nonzero" fill-opacity="1" /><path clip-path="url(#clip040)" d="M764.232 265.811 Q763.514 265.395 762.658 265.21 Q761.824 265.001 760.806 265.001 Q757.195 265.001 755.25 267.362 Q753.329 269.7 753.329 274.098 L753.329 287.756 L749.047 287.756 L749.047 261.83 L753.329 261.83 L753.329 265.858 Q754.672 263.497 756.824 262.362 Q758.977 261.205 762.056 261.205 Q762.496 261.205 763.028 261.274 Q763.561 261.321 764.209 261.436 L764.232 265.811 Z" fill="#000000" fill-rule="nonzero" fill-opacity="1" /><path clip-path="url(#clip040)" d="M779.486 290.163 Q777.681 294.793 775.968 296.205 Q774.255 297.617 771.385 297.617 L767.982 297.617 L767.982 294.052 L770.482 294.052 Q772.241 294.052 773.213 293.219 Q774.185 292.385 775.366 289.283 L776.13 287.339 L765.644 261.83 L770.158 261.83 L778.26 282.108 L786.361 261.83 L790.875 261.83 L779.486 290.163 Z" fill="#000000" fill-rule="nonzero" fill-opacity="1" /></svg>
