<?xml version="1.0" encoding="utf-8"?>
<svg xmlns="http://www.w3.org/2000/svg" xmlns:xlink="http://www.w3.org/1999/xlink" width="600" height="400" viewBox="0 0 2400 1600">
<defs>
  <clipPath id="clip080">
    <rect x="0" y="0" width="2400" height="1600"/>
  </clipPath>
</defs>
<path clip-path="url(#clip080)" d="M0 1600 L2400 1600 L2400 0 L0 0  Z" fill="#ffffff" fill-rule="evenodd" fill-opacity="1"/>
<defs>
  <clipPath id="clip081">
    <rect x="480" y="0" width="1681" height="1600"/>
  </clipPath>
</defs>
<path clip-path="url(#clip080)" d="M280.19 1423.18 L2352.76 1423.18 L2352.76 123.472 L280.19 123.472  Z" fill="#ffffff" fill-rule="evenodd" fill-opacity="1"/>
<defs>
  <clipPath id="clip082">
    <rect x="280" y="123" width="2074" height="1301"/>
  </clipPath>
</defs>
<polyline clip-path="url(#clip082)" style="stroke:#000000; stroke-linecap:round; stroke-linejoin:round; stroke-width:2; stroke-opacity:0.1; fill:none" points="329.022,1423.18 329.022,123.472 "/>
<polyline clip-path="url(#clip082)" style="stroke:#000000; stroke-linecap:round; stroke-linejoin:round; stroke-width:2; stroke-opacity:0.1; fill:none" points="820.291,1423.18 820.291,123.472 "/>
<polyline clip-path="url(#clip082)" style="stroke:#000000; stroke-linecap:round; stroke-linejoin:round; stroke-width:2; stroke-opacity:0.1; fill:none" points="1311.56,1423.18 1311.56,123.472 "/>
<polyline clip-path="url(#clip082)" style="stroke:#000000; stroke-linecap:round; stroke-linejoin:round; stroke-width:2; stroke-opacity:0.1; fill:none" points="1802.83,1423.18 1802.83,123.472 "/>
<polyline clip-path="url(#clip082)" style="stroke:#000000; stroke-linecap:round; stroke-linejoin:round; stroke-width:2; stroke-opacity:0.1; fill:none" points="2294.1,1423.18 2294.1,123.472 "/>
<polyline clip-path="url(#clip080)" style="stroke:#000000; stroke-linecap:round; stroke-linejoin:round; stroke-width:4; stroke-opacity:1; fill:none" points="280.19,1423.18 2352.76,1423.18 "/>
<polyline clip-path="url(#clip080)" style="stroke:#000000; stroke-linecap:round; stroke-linejoin:round; stroke-width:4; stroke-opacity:1; fill:none" points="329.022,1423.18 329.022,1404.28 "/>
<polyline clip-path="url(#clip080)" style="stroke:#000000; stroke-linecap:round; stroke-linejoin:round; stroke-width:4; stroke-opacity:1; fill:none" points="820.291,1423.18 820.291,1404.28 "/>
<polyline clip-path="url(#clip080)" style="stroke:#000000; stroke-linecap:round; stroke-linejoin:round; stroke-width:4; stroke-opacity:1; fill:none" points="1311.56,1423.18 1311.56,1404.28 "/>
<polyline clip-path="url(#clip080)" style="stroke:#000000; stroke-linecap:round; stroke-linejoin:round; stroke-width:4; stroke-opacity:1; fill:none" points="1802.83,1423.18 1802.83,1404.28 "/>
<polyline clip-path="url(#clip080)" style="stroke:#000000; stroke-linecap:round; stroke-linejoin:round; stroke-width:4; stroke-opacity:1; fill:none" points="2294.1,1423.18 2294.1,1404.28 "/>
<path clip-path="url(#clip080)" d="M329.022 1454.1 Q325.411 1454.1 323.582 1457.66 Q321.777 1461.2 321.777 1468.33 Q321.777 1475.44 323.582 1479.01 Q325.411 1482.55 329.022 1482.55 Q332.656 1482.55 334.462 1479.01 Q336.291 1475.44 336.291 1468.33 Q336.291 1461.2 334.462 1457.66 Q332.656 1454.1 329.022 1454.1 M329.022 1450.39 Q334.832 1450.39 337.888 1455 Q340.967 1459.58 340.967 1468.33 Q340.967 1477.06 337.888 1481.67 Q334.832 1486.25 329.022 1486.25 Q323.212 1486.25 320.133 1481.67 Q317.078 1477.06 317.078 1468.33 Q317.078 1459.58 320.133 1455 Q323.212 1450.39 329.022 1450.39 Z" fill="#000000" fill-rule="nonzero" fill-opacity="1" /><path clip-path="url(#clip080)" d="M794.99 1451.02 L813.347 1451.02 L813.347 1454.96 L799.273 1454.96 L799.273 1463.43 Q800.291 1463.08 801.31 1462.92 Q802.328 1462.73 803.347 1462.73 Q809.134 1462.73 812.513 1465.9 Q815.893 1469.08 815.893 1474.49 Q815.893 1480.07 812.421 1483.17 Q808.949 1486.25 802.629 1486.25 Q800.453 1486.25 798.185 1485.88 Q795.939 1485.51 793.532 1484.77 L793.532 1480.07 Q795.615 1481.2 797.838 1481.76 Q800.06 1482.32 802.537 1482.32 Q806.541 1482.32 808.879 1480.21 Q811.217 1478.1 811.217 1474.49 Q811.217 1470.88 808.879 1468.77 Q806.541 1466.67 802.537 1466.67 Q800.662 1466.67 798.787 1467.08 Q796.935 1467.5 794.99 1468.38 L794.99 1451.02 Z" fill="#000000" fill-rule="nonzero" fill-opacity="1" /><path clip-path="url(#clip080)" d="M835.106 1454.1 Q831.495 1454.1 829.666 1457.66 Q827.861 1461.2 827.861 1468.33 Q827.861 1475.44 829.666 1479.01 Q831.495 1482.55 835.106 1482.55 Q838.74 1482.55 840.546 1479.01 Q842.374 1475.44 842.374 1468.33 Q842.374 1461.2 840.546 1457.66 Q838.74 1454.1 835.106 1454.1 M835.106 1450.39 Q840.916 1450.39 843.972 1455 Q847.05 1459.58 847.05 1468.33 Q847.05 1477.06 843.972 1481.67 Q840.916 1486.25 835.106 1486.25 Q829.296 1486.25 826.217 1481.67 Q823.162 1477.06 823.162 1468.33 Q823.162 1459.58 826.217 1455 Q829.296 1450.39 835.106 1450.39 Z" fill="#000000" fill-rule="nonzero" fill-opacity="1" /><path clip-path="url(#clip080)" d="M1271.17 1481.64 L1278.81 1481.64 L1278.81 1455.28 L1270.5 1456.95 L1270.5 1452.69 L1278.76 1451.02 L1283.44 1451.02 L1283.44 1481.64 L1291.07 1481.64 L1291.07 1485.58 L1271.17 1485.58 L1271.17 1481.64 Z" fill="#000000" fill-rule="nonzero" fill-opacity="1" /><path clip-path="url(#clip080)" d="M1310.52 1454.1 Q1306.91 1454.1 1305.08 1457.66 Q1303.27 1461.2 1303.27 1468.33 Q1303.27 1475.44 1305.08 1479.01 Q1306.91 1482.55 1310.52 1482.55 Q1314.15 1482.55 1315.96 1479.01 Q1317.79 1475.44 1317.79 1468.33 Q1317.79 1461.2 1315.96 1457.66 Q1314.15 1454.1 1310.52 1454.1 M1310.52 1450.39 Q1316.33 1450.39 1319.38 1455 Q1322.46 1459.58 1322.46 1468.33 Q1322.46 1477.06 1319.38 1481.67 Q1316.33 1486.25 1310.52 1486.25 Q1304.71 1486.25 1301.63 1481.67 Q1298.57 1477.06 1298.57 1468.33 Q1298.57 1459.58 1301.63 1455 Q1304.71 1450.39 1310.52 1450.39 Z" fill="#000000" fill-rule="nonzero" fill-opacity="1" /><path clip-path="url(#clip080)" d="M1340.68 1454.1 Q1337.07 1454.1 1335.24 1457.66 Q1333.44 1461.2 1333.44 1468.33 Q1333.44 1475.44 1335.24 1479.01 Q1337.07 1482.55 1340.68 1482.55 Q1344.31 1482.55 1346.12 1479.01 Q1347.95 1475.44 1347.95 1468.33 Q1347.95 1461.2 1346.12 1457.66 Q1344.31 1454.1 1340.68 1454.1 M1340.68 1450.39 Q1346.49 1450.39 1349.55 1455 Q1352.62 1459.58 1352.62 1468.33 Q1352.62 1477.06 1349.55 1481.67 Q1346.49 1486.25 1340.68 1486.25 Q1334.87 1486.25 1331.79 1481.67 Q1328.74 1477.06 1328.74 1468.33 Q1328.74 1459.58 1331.79 1455 Q1334.87 1450.39 1340.68 1450.39 Z" fill="#000000" fill-rule="nonzero" fill-opacity="1" /><path clip-path="url(#clip080)" d="M1762.44 1481.64 L1770.07 1481.64 L1770.07 1455.28 L1761.76 1456.95 L1761.76 1452.69 L1770.03 1451.02 L1774.7 1451.02 L1774.7 1481.64 L1782.34 1481.64 L1782.34 1485.58 L1762.44 1485.58 L1762.44 1481.64 Z" fill="#000000" fill-rule="nonzero" fill-opacity="1" /><path clip-path="url(#clip080)" d="M1791.83 1451.02 L1810.19 1451.02 L1810.19 1454.96 L1796.12 1454.96 L1796.12 1463.43 Q1797.13 1463.08 1798.15 1462.92 Q1799.17 1462.73 1800.19 1462.73 Q1805.98 1462.73 1809.36 1465.9 Q1812.74 1469.08 1812.74 1474.49 Q1812.74 1480.07 1809.26 1483.17 Q1805.79 1486.25 1799.47 1486.25 Q1797.3 1486.25 1795.03 1485.88 Q1792.78 1485.51 1790.38 1484.77 L1790.38 1480.07 Q1792.46 1481.2 1794.68 1481.76 Q1796.9 1482.32 1799.38 1482.32 Q1803.38 1482.32 1805.72 1480.21 Q1808.06 1478.1 1808.06 1474.49 Q1808.06 1470.88 1805.72 1468.77 Q1803.38 1466.67 1799.38 1466.67 Q1797.51 1466.67 1795.63 1467.08 Q1793.78 1467.5 1791.83 1468.38 L1791.83 1451.02 Z" fill="#000000" fill-rule="nonzero" fill-opacity="1" /><path clip-path="url(#clip080)" d="M1831.95 1454.1 Q1828.34 1454.1 1826.51 1457.66 Q1824.7 1461.2 1824.7 1468.33 Q1824.7 1475.44 1826.51 1479.01 Q1828.34 1482.55 1831.95 1482.55 Q1835.58 1482.55 1837.39 1479.01 Q1839.22 1475.44 1839.22 1468.33 Q1839.22 1461.2 1837.39 1457.66 Q1835.58 1454.1 1831.95 1454.1 M1831.95 1450.39 Q1837.76 1450.39 1840.82 1455 Q1843.89 1459.58 1843.89 1468.33 Q1843.89 1477.06 1840.82 1481.67 Q1837.76 1486.25 1831.95 1486.25 Q1826.14 1486.25 1823.06 1481.67 Q1820.01 1477.06 1820.01 1468.33 Q1820.01 1459.58 1823.06 1455 Q1826.14 1450.39 1831.95 1450.39 Z" fill="#000000" fill-rule="nonzero" fill-opacity="1" /><path clip-path="url(#clip080)" d="M2257.79 1481.64 L2274.11 1481.64 L2274.11 1485.58 L2252.17 1485.58 L2252.17 1481.64 Q2254.83 1478.89 2259.41 1474.26 Q2264.02 1469.61 2265.2 1468.27 Q2267.44 1465.74 2268.32 1464.01 Q2269.23 1462.25 2269.23 1460.56 Q2269.23 1457.8 2267.28 1456.07 Q2265.36 1454.33 2262.26 1454.33 Q2260.06 1454.33 2257.61 1455.09 Q2255.17 1455.86 2252.4 1457.41 L2252.4 1452.69 Q2255.22 1451.55 2257.67 1450.97 Q2260.13 1450.39 2262.17 1450.39 Q2267.54 1450.39 2270.73 1453.08 Q2273.92 1455.77 2273.92 1460.26 Q2273.92 1462.39 2273.11 1464.31 Q2272.33 1466.2 2270.22 1468.8 Q2269.64 1469.47 2266.54 1472.69 Q2263.44 1475.88 2257.79 1481.64 Z" fill="#000000" fill-rule="nonzero" fill-opacity="1" /><path clip-path="url(#clip080)" d="M2293.92 1454.1 Q2290.31 1454.1 2288.48 1457.66 Q2286.68 1461.2 2286.68 1468.33 Q2286.68 1475.44 2288.48 1479.01 Q2290.31 1482.55 2293.92 1482.55 Q2297.56 1482.55 2299.36 1479.01 Q2301.19 1475.44 2301.19 1468.33 Q2301.19 1461.2 2299.36 1457.66 Q2297.56 1454.1 2293.92 1454.1 M2293.92 1450.39 Q2299.73 1450.39 2302.79 1455 Q2305.87 1459.58 2305.87 1468.33 Q2305.87 1477.06 2302.79 1481.67 Q2299.73 1486.25 2293.92 1486.25 Q2288.11 1486.25 2285.04 1481.67 Q2281.98 1477.06 2281.98 1468.33 Q2281.98 1459.58 2285.04 1455 Q2288.11 1450.39 2293.92 1450.39 Z" fill="#000000" fill-rule="nonzero" fill-opacity="1" /><path clip-path="url(#clip080)" d="M2324.09 1454.1 Q2320.48 1454.1 2318.65 1457.66 Q2316.84 1461.2 2316.84 1468.33 Q2316.84 1475.44 2318.65 1479.01 Q2320.48 1482.55 2324.09 1482.55 Q2327.72 1482.55 2329.53 1479.01 Q2331.36 1475.44 2331.36 1468.33 Q2331.36 1461.2 2329.53 1457.66 Q2327.72 1454.1 2324.09 1454.1 M2324.09 1450.39 Q2329.9 1450.39 2332.95 1455 Q2336.03 1459.58 2336.03 1468.33 Q2336.03 1477.06 2332.95 1481.67 Q2329.9 1486.25 2324.09 1486.25 Q2318.28 1486.25 2315.2 1481.67 Q2312.14 1477.06 2312.14 1468.33 Q2312.14 1459.58 2315.2 1455 Q2318.28 1450.39 2324.09 1450.39 Z" fill="#000000" fill-rule="nonzero" fill-opacity="1" /><path clip-path="url(#clip080)" d="M1145.87 1550.25 Q1145.87 1543.79 1143.2 1540.13 Q1140.56 1536.44 1135.91 1536.44 Q1131.26 1536.44 1128.59 1540.13 Q1125.95 1543.79 1125.95 1550.25 Q1125.95 1556.71 1128.59 1560.4 Q1131.26 1564.07 1135.91 1564.07 Q1140.56 1564.07 1143.2 1560.4 Q1145.87 1556.71 1145.87 1550.25 M1125.95 1537.81 Q1127.79 1534.62 1130.59 1533.1 Q1133.43 1531.54 1137.34 1531.54 Q1143.83 1531.54 1147.88 1536.69 Q1151.95 1541.85 1151.95 1550.25 Q1151.95 1558.65 1147.88 1563.81 Q1143.83 1568.97 1137.34 1568.97 Q1133.43 1568.97 1130.59 1567.44 Q1127.79 1565.88 1125.95 1562.7 L1125.95 1568.04 L1120.06 1568.04 L1120.06 1518.52 L1125.95 1518.52 L1125.95 1537.81 Z" fill="#000000" fill-rule="nonzero" fill-opacity="1" /><path clip-path="url(#clip080)" d="M1161.66 1518.52 L1167.52 1518.52 L1167.52 1568.04 L1161.66 1568.04 L1161.66 1518.52 Z" fill="#000000" fill-rule="nonzero" fill-opacity="1" /><path clip-path="url(#clip080)" d="M1193.58 1536.5 Q1188.87 1536.5 1186.14 1540.19 Q1183.4 1543.85 1183.4 1550.25 Q1183.4 1556.65 1186.1 1560.34 Q1188.84 1564 1193.58 1564 Q1198.26 1564 1201 1560.31 Q1203.74 1556.62 1203.74 1550.25 Q1203.74 1543.92 1201 1540.23 Q1198.26 1536.5 1193.58 1536.5 M1193.58 1531.54 Q1201.22 1531.54 1205.58 1536.5 Q1209.94 1541.47 1209.94 1550.25 Q1209.94 1559 1205.58 1564 Q1201.22 1568.97 1193.58 1568.97 Q1185.91 1568.97 1181.55 1564 Q1177.22 1559 1177.22 1550.25 Q1177.22 1541.47 1181.55 1536.5 Q1185.91 1531.54 1193.58 1531.54 Z" fill="#000000" fill-rule="nonzero" fill-opacity="1" /><path clip-path="url(#clip080)" d="M1245.3 1533.76 L1245.3 1539.24 Q1242.82 1537.87 1240.31 1537.2 Q1237.82 1536.5 1235.28 1536.5 Q1229.58 1536.5 1226.43 1540.13 Q1223.28 1543.73 1223.28 1550.25 Q1223.28 1556.78 1226.43 1560.4 Q1229.58 1564 1235.28 1564 Q1237.82 1564 1240.31 1563.33 Q1242.82 1562.63 1245.3 1561.26 L1245.3 1566.68 Q1242.85 1567.82 1240.21 1568.39 Q1237.6 1568.97 1234.64 1568.97 Q1226.59 1568.97 1221.85 1563.91 Q1217.1 1558.85 1217.1 1550.25 Q1217.1 1541.53 1221.88 1536.53 Q1226.68 1531.54 1235.02 1531.54 Q1237.73 1531.54 1240.31 1532.11 Q1242.89 1532.65 1245.3 1533.76 Z" fill="#000000" fill-rule="nonzero" fill-opacity="1" /><path clip-path="url(#clip080)" d="M1255.27 1518.52 L1261.15 1518.52 L1261.15 1547.77 L1278.63 1532.4 L1286.11 1532.4 L1267.2 1549.07 L1286.9 1568.04 L1279.27 1568.04 L1261.15 1550.63 L1261.15 1568.04 L1255.27 1568.04 L1255.27 1518.52 Z" fill="#000000" fill-rule="nonzero" fill-opacity="1" /><path clip-path="url(#clip080)" d="M1336.68 1533.45 L1336.68 1538.98 Q1334.2 1537.71 1331.53 1537.07 Q1328.85 1536.44 1325.99 1536.44 Q1321.63 1536.44 1319.43 1537.77 Q1317.27 1539.11 1317.27 1541.79 Q1317.27 1543.82 1318.83 1545 Q1320.39 1546.15 1325.1 1547.2 L1327.1 1547.64 Q1333.34 1548.98 1335.95 1551.43 Q1338.59 1553.85 1338.59 1558.21 Q1338.59 1563.17 1334.65 1566.07 Q1330.73 1568.97 1323.86 1568.97 Q1320.99 1568.97 1317.87 1568.39 Q1314.79 1567.85 1311.35 1566.74 L1311.35 1560.69 Q1314.6 1562.38 1317.75 1563.24 Q1320.9 1564.07 1323.98 1564.07 Q1328.12 1564.07 1330.35 1562.66 Q1332.58 1561.23 1332.58 1558.65 Q1332.58 1556.27 1330.95 1554.99 Q1329.36 1553.72 1323.92 1552.54 L1321.88 1552.07 Q1316.44 1550.92 1314.02 1548.56 Q1311.6 1546.18 1311.6 1542.04 Q1311.6 1537.01 1315.17 1534.27 Q1318.73 1531.54 1325.29 1531.54 Q1328.54 1531.54 1331.4 1532.01 Q1334.27 1532.49 1336.68 1533.45 Z" fill="#000000" fill-rule="nonzero" fill-opacity="1" /><path clip-path="url(#clip080)" d="M1347.92 1532.4 L1353.78 1532.4 L1353.78 1568.04 L1347.92 1568.04 L1347.92 1532.4 M1347.92 1518.52 L1353.78 1518.52 L1353.78 1525.93 L1347.92 1525.93 L1347.92 1518.52 Z" fill="#000000" fill-rule="nonzero" fill-opacity="1" /><path clip-path="url(#clip080)" d="M1363.48 1532.4 L1391.3 1532.4 L1391.3 1537.74 L1369.28 1563.37 L1391.3 1563.37 L1391.3 1568.04 L1362.69 1568.04 L1362.69 1562.7 L1384.71 1537.07 L1363.48 1537.07 L1363.48 1532.4 Z" fill="#000000" fill-rule="nonzero" fill-opacity="1" /><path clip-path="url(#clip080)" d="M1430.74 1548.76 L1430.74 1551.62 L1403.81 1551.62 Q1404.19 1557.67 1407.44 1560.85 Q1410.72 1564 1416.54 1564 Q1419.92 1564 1423.07 1563.17 Q1426.25 1562.35 1429.37 1560.69 L1429.37 1566.23 Q1426.22 1567.57 1422.91 1568.27 Q1419.6 1568.97 1416.19 1568.97 Q1407.66 1568.97 1402.66 1564 Q1397.7 1559.04 1397.7 1550.57 Q1397.7 1541.82 1402.41 1536.69 Q1407.15 1531.54 1415.17 1531.54 Q1422.37 1531.54 1426.54 1536.18 Q1430.74 1540.8 1430.74 1548.76 M1424.88 1547.04 Q1424.82 1542.23 1422.18 1539.37 Q1419.57 1536.5 1415.24 1536.5 Q1410.34 1536.5 1407.38 1539.27 Q1404.45 1542.04 1404 1547.07 L1424.88 1547.04 Z" fill="#000000" fill-rule="nonzero" fill-opacity="1" /><path clip-path="url(#clip080)" d="M1488.82 1539.24 Q1491.02 1535.29 1494.08 1533.41 Q1497.13 1531.54 1501.27 1531.54 Q1506.84 1531.54 1509.86 1535.45 Q1512.89 1539.33 1512.89 1546.53 L1512.89 1568.04 L1507 1568.04 L1507 1546.72 Q1507 1541.59 1505.18 1539.11 Q1503.37 1536.63 1499.65 1536.63 Q1495.09 1536.63 1492.45 1539.65 Q1489.81 1542.68 1489.81 1547.9 L1489.81 1568.04 L1483.92 1568.04 L1483.92 1546.72 Q1483.92 1541.56 1482.11 1539.11 Q1480.29 1536.63 1476.51 1536.63 Q1472.02 1536.63 1469.38 1539.68 Q1466.74 1542.71 1466.74 1547.9 L1466.74 1568.04 L1460.85 1568.04 L1460.85 1532.4 L1466.74 1532.4 L1466.74 1537.93 Q1468.74 1534.66 1471.54 1533.1 Q1474.34 1531.54 1478.19 1531.54 Q1482.08 1531.54 1484.78 1533.51 Q1487.52 1535.48 1488.82 1539.24 Z" fill="#000000" fill-rule="nonzero" fill-opacity="1" /><polyline clip-path="url(#clip082)" style="stroke:#000000; stroke-linecap:round; stroke-linejoin:round; stroke-width:2; stroke-opacity:0.1; fill:none" points="280.19,1320.15 2352.76,1320.15 "/>
<polyline clip-path="url(#clip082)" style="stroke:#000000; stroke-linecap:round; stroke-linejoin:round; stroke-width:2; stroke-opacity:0.1; fill:none" points="280.19,957.229 2352.76,957.229 "/>
<polyline clip-path="url(#clip082)" style="stroke:#000000; stroke-linecap:round; stroke-linejoin:round; stroke-width:2; stroke-opacity:0.1; fill:none" points="280.19,594.312 2352.76,594.312 "/>
<polyline clip-path="url(#clip082)" style="stroke:#000000; stroke-linecap:round; stroke-linejoin:round; stroke-width:2; stroke-opacity:0.1; fill:none" points="280.19,231.395 2352.76,231.395 "/>
<polyline clip-path="url(#clip080)" style="stroke:#000000; stroke-linecap:round; stroke-linejoin:round; stroke-width:4; stroke-opacity:1; fill:none" points="280.19,1423.18 280.19,123.472 "/>
<polyline clip-path="url(#clip080)" style="stroke:#000000; stroke-linecap:round; stroke-linejoin:round; stroke-width:4; stroke-opacity:1; fill:none" points="280.19,1320.15 299.088,1320.15 "/>
<polyline clip-path="url(#clip080)" style="stroke:#000000; stroke-linecap:round; stroke-linejoin:round; stroke-width:4; stroke-opacity:1; fill:none" points="280.19,957.229 299.088,957.229 "/>
<polyline clip-path="url(#clip080)" style="stroke:#000000; stroke-linecap:round; stroke-linejoin:round; stroke-width:4; stroke-opacity:1; fill:none" points="280.19,594.312 299.088,594.312 "/>
<polyline clip-path="url(#clip080)" style="stroke:#000000; stroke-linecap:round; stroke-linejoin:round; stroke-width:4; stroke-opacity:1; fill:none" points="280.19,231.395 299.088,231.395 "/>
<path clip-path="url(#clip080)" d="M127.917 1305.94 Q124.306 1305.94 122.478 1309.51 Q120.672 1313.05 120.672 1320.18 Q120.672 1327.29 122.478 1330.85 Q124.306 1334.39 127.917 1334.39 Q131.552 1334.39 133.357 1330.85 Q135.186 1327.29 135.186 1320.18 Q135.186 1313.05 133.357 1309.51 Q131.552 1305.94 127.917 1305.94 M127.917 1302.24 Q133.728 1302.24 136.783 1306.85 Q139.862 1311.43 139.862 1320.18 Q139.862 1328.91 136.783 1333.51 Q133.728 1338.1 127.917 1338.1 Q122.107 1338.1 119.029 1333.51 Q115.973 1328.91 115.973 1320.18 Q115.973 1311.43 119.029 1306.85 Q122.107 1302.24 127.917 1302.24 Z" fill="#000000" fill-rule="nonzero" fill-opacity="1" /><path clip-path="url(#clip080)" d="M148.079 1331.55 L152.964 1331.55 L152.964 1337.43 L148.079 1337.43 L148.079 1331.55 Z" fill="#000000" fill-rule="nonzero" fill-opacity="1" /><path clip-path="url(#clip080)" d="M173.149 1305.94 Q169.538 1305.94 167.709 1309.51 Q165.903 1313.05 165.903 1320.18 Q165.903 1327.29 167.709 1330.85 Q169.538 1334.39 173.149 1334.39 Q176.783 1334.39 178.589 1330.85 Q180.417 1327.29 180.417 1320.18 Q180.417 1313.05 178.589 1309.51 Q176.783 1305.94 173.149 1305.94 M173.149 1302.24 Q178.959 1302.24 182.014 1306.85 Q185.093 1311.43 185.093 1320.18 Q185.093 1328.91 182.014 1333.51 Q178.959 1338.1 173.149 1338.1 Q167.339 1338.1 164.26 1333.51 Q161.204 1328.91 161.204 1320.18 Q161.204 1311.43 164.26 1306.85 Q167.339 1302.24 173.149 1302.24 Z" fill="#000000" fill-rule="nonzero" fill-opacity="1" /><path clip-path="url(#clip080)" d="M203.311 1305.94 Q199.7 1305.94 197.871 1309.51 Q196.065 1313.05 196.065 1320.18 Q196.065 1327.29 197.871 1330.85 Q199.7 1334.39 203.311 1334.39 Q206.945 1334.39 208.75 1330.85 Q210.579 1327.29 210.579 1320.18 Q210.579 1313.05 208.75 1309.51 Q206.945 1305.94 203.311 1305.94 M203.311 1302.24 Q209.121 1302.24 212.176 1306.85 Q215.255 1311.43 215.255 1320.18 Q215.255 1328.91 212.176 1333.51 Q209.121 1338.1 203.311 1338.1 Q197.5 1338.1 194.422 1333.51 Q191.366 1328.91 191.366 1320.18 Q191.366 1311.43 194.422 1306.85 Q197.5 1302.24 203.311 1302.24 Z" fill="#000000" fill-rule="nonzero" fill-opacity="1" /><path clip-path="url(#clip080)" d="M224.283 1333.49 L231.922 1333.49 L231.922 1307.12 L223.611 1308.79 L223.611 1304.53 L231.875 1302.87 L236.551 1302.87 L236.551 1333.49 L244.19 1333.49 L244.19 1337.43 L224.283 1337.43 L224.283 1333.49 Z" fill="#000000" fill-rule="nonzero" fill-opacity="1" /><path clip-path="url(#clip080)" d="M128.288 943.027 Q124.677 943.027 122.848 946.592 Q121.043 950.134 121.043 957.263 Q121.043 964.37 122.848 967.935 Q124.677 971.476 128.288 971.476 Q131.922 971.476 133.728 967.935 Q135.556 964.37 135.556 957.263 Q135.556 950.134 133.728 946.592 Q131.922 943.027 128.288 943.027 M128.288 939.324 Q134.098 939.324 137.154 943.93 Q140.232 948.513 140.232 957.263 Q140.232 965.99 137.154 970.597 Q134.098 975.18 128.288 975.18 Q122.478 975.18 119.399 970.597 Q116.343 965.99 116.343 957.263 Q116.343 948.513 119.399 943.93 Q122.478 939.324 128.288 939.324 Z" fill="#000000" fill-rule="nonzero" fill-opacity="1" /><path clip-path="url(#clip080)" d="M148.45 968.629 L153.334 968.629 L153.334 974.509 L148.45 974.509 L148.45 968.629 Z" fill="#000000" fill-rule="nonzero" fill-opacity="1" /><path clip-path="url(#clip080)" d="M173.519 943.027 Q169.908 943.027 168.079 946.592 Q166.274 950.134 166.274 957.263 Q166.274 964.37 168.079 967.935 Q169.908 971.476 173.519 971.476 Q177.153 971.476 178.959 967.935 Q180.788 964.37 180.788 957.263 Q180.788 950.134 178.959 946.592 Q177.153 943.027 173.519 943.027 M173.519 939.324 Q179.329 939.324 182.385 943.93 Q185.463 948.513 185.463 957.263 Q185.463 965.99 182.385 970.597 Q179.329 975.18 173.519 975.18 Q167.709 975.18 164.63 970.597 Q161.575 965.99 161.575 957.263 Q161.575 948.513 164.63 943.93 Q167.709 939.324 173.519 939.324 Z" fill="#000000" fill-rule="nonzero" fill-opacity="1" /><path clip-path="url(#clip080)" d="M203.681 943.027 Q200.07 943.027 198.241 946.592 Q196.436 950.134 196.436 957.263 Q196.436 964.37 198.241 967.935 Q200.07 971.476 203.681 971.476 Q207.315 971.476 209.121 967.935 Q210.949 964.37 210.949 957.263 Q210.949 950.134 209.121 946.592 Q207.315 943.027 203.681 943.027 M203.681 939.324 Q209.491 939.324 212.547 943.93 Q215.625 948.513 215.625 957.263 Q215.625 965.99 212.547 970.597 Q209.491 975.18 203.681 975.18 Q197.871 975.18 194.792 970.597 Q191.737 965.99 191.737 957.263 Q191.737 948.513 194.792 943.93 Q197.871 939.324 203.681 939.324 Z" fill="#000000" fill-rule="nonzero" fill-opacity="1" /><path clip-path="url(#clip080)" d="M227.871 970.574 L244.19 970.574 L244.19 974.509 L222.246 974.509 L222.246 970.574 Q224.908 967.819 229.491 963.189 Q234.097 958.537 235.278 957.194 Q237.523 954.671 238.403 952.935 Q239.306 951.175 239.306 949.486 Q239.306 946.731 237.361 944.995 Q235.44 943.259 232.338 943.259 Q230.139 943.259 227.685 944.023 Q225.255 944.787 222.477 946.338 L222.477 941.615 Q225.301 940.481 227.755 939.902 Q230.209 939.324 232.246 939.324 Q237.616 939.324 240.81 942.009 Q244.005 944.694 244.005 949.185 Q244.005 951.314 243.195 953.236 Q242.408 955.134 240.301 957.726 Q239.722 958.398 236.621 961.615 Q233.519 964.81 227.871 970.574 Z" fill="#000000" fill-rule="nonzero" fill-opacity="1" /><path clip-path="url(#clip080)" d="M127.339 580.11 Q123.728 580.11 121.899 583.675 Q120.093 587.217 120.093 594.346 Q120.093 601.453 121.899 605.018 Q123.728 608.559 127.339 608.559 Q130.973 608.559 132.779 605.018 Q134.607 601.453 134.607 594.346 Q134.607 587.217 132.779 583.675 Q130.973 580.11 127.339 580.11 M127.339 576.407 Q133.149 576.407 136.204 581.013 Q139.283 585.596 139.283 594.346 Q139.283 603.073 136.204 607.68 Q133.149 612.263 127.339 612.263 Q121.529 612.263 118.45 607.68 Q115.394 603.073 115.394 594.346 Q115.394 585.596 118.45 581.013 Q121.529 576.407 127.339 576.407 Z" fill="#000000" fill-rule="nonzero" fill-opacity="1" /><path clip-path="url(#clip080)" d="M147.501 605.712 L152.385 605.712 L152.385 611.592 L147.501 611.592 L147.501 605.712 Z" fill="#000000" fill-rule="nonzero" fill-opacity="1" /><path clip-path="url(#clip080)" d="M172.57 580.11 Q168.959 580.11 167.13 583.675 Q165.325 587.217 165.325 594.346 Q165.325 601.453 167.13 605.018 Q168.959 608.559 172.57 608.559 Q176.204 608.559 178.01 605.018 Q179.839 601.453 179.839 594.346 Q179.839 587.217 178.01 583.675 Q176.204 580.11 172.57 580.11 M172.57 576.407 Q178.38 576.407 181.436 581.013 Q184.514 585.596 184.514 594.346 Q184.514 603.073 181.436 607.68 Q178.38 612.263 172.57 612.263 Q166.76 612.263 163.681 607.68 Q160.626 603.073 160.626 594.346 Q160.626 585.596 163.681 581.013 Q166.76 576.407 172.57 576.407 Z" fill="#000000" fill-rule="nonzero" fill-opacity="1" /><path clip-path="url(#clip080)" d="M202.732 580.11 Q199.121 580.11 197.292 583.675 Q195.487 587.217 195.487 594.346 Q195.487 601.453 197.292 605.018 Q199.121 608.559 202.732 608.559 Q206.366 608.559 208.172 605.018 Q210 601.453 210 594.346 Q210 587.217 208.172 583.675 Q206.366 580.11 202.732 580.11 M202.732 576.407 Q208.542 576.407 211.598 581.013 Q214.676 585.596 214.676 594.346 Q214.676 603.073 211.598 607.68 Q208.542 612.263 202.732 612.263 Q196.922 612.263 193.843 607.68 Q190.788 603.073 190.788 594.346 Q190.788 585.596 193.843 581.013 Q196.922 576.407 202.732 576.407 Z" fill="#000000" fill-rule="nonzero" fill-opacity="1" /><path clip-path="url(#clip080)" d="M237.06 592.958 Q240.417 593.675 242.292 595.944 Q244.19 598.212 244.19 601.545 Q244.19 606.661 240.672 609.462 Q237.153 612.263 230.672 612.263 Q228.496 612.263 226.181 611.823 Q223.889 611.407 221.436 610.55 L221.436 606.036 Q223.38 607.17 225.695 607.749 Q228.01 608.328 230.533 608.328 Q234.931 608.328 237.222 606.592 Q239.537 604.856 239.537 601.545 Q239.537 598.49 237.384 596.777 Q235.255 595.041 231.435 595.041 L227.408 595.041 L227.408 591.198 L231.621 591.198 Q235.07 591.198 236.898 589.833 Q238.727 588.444 238.727 585.851 Q238.727 583.189 236.829 581.777 Q234.954 580.342 231.435 580.342 Q229.514 580.342 227.315 580.759 Q225.116 581.175 222.477 582.055 L222.477 577.888 Q225.139 577.147 227.454 576.777 Q229.792 576.407 231.852 576.407 Q237.176 576.407 240.278 578.837 Q243.38 581.245 243.38 585.365 Q243.38 588.235 241.736 590.226 Q240.093 592.194 237.06 592.958 Z" fill="#000000" fill-rule="nonzero" fill-opacity="1" /><path clip-path="url(#clip080)" d="M126.205 217.193 Q122.593 217.193 120.765 220.758 Q118.959 224.3 118.959 231.429 Q118.959 238.536 120.765 242.101 Q122.593 245.642 126.205 245.642 Q129.839 245.642 131.644 242.101 Q133.473 238.536 133.473 231.429 Q133.473 224.3 131.644 220.758 Q129.839 217.193 126.205 217.193 M126.205 213.49 Q132.015 213.49 135.07 218.096 Q138.149 222.679 138.149 231.429 Q138.149 240.156 135.07 244.763 Q132.015 249.346 126.205 249.346 Q120.394 249.346 117.316 244.763 Q114.26 240.156 114.26 231.429 Q114.26 222.679 117.316 218.096 Q120.394 213.49 126.205 213.49 Z" fill="#000000" fill-rule="nonzero" fill-opacity="1" /><path clip-path="url(#clip080)" d="M146.366 242.795 L151.251 242.795 L151.251 248.675 L146.366 248.675 L146.366 242.795 Z" fill="#000000" fill-rule="nonzero" fill-opacity="1" /><path clip-path="url(#clip080)" d="M171.436 217.193 Q167.825 217.193 165.996 220.758 Q164.19 224.3 164.19 231.429 Q164.19 238.536 165.996 242.101 Q167.825 245.642 171.436 245.642 Q175.07 245.642 176.876 242.101 Q178.704 238.536 178.704 231.429 Q178.704 224.3 176.876 220.758 Q175.07 217.193 171.436 217.193 M171.436 213.49 Q177.246 213.49 180.301 218.096 Q183.38 222.679 183.38 231.429 Q183.38 240.156 180.301 244.763 Q177.246 249.346 171.436 249.346 Q165.626 249.346 162.547 244.763 Q159.491 240.156 159.491 231.429 Q159.491 222.679 162.547 218.096 Q165.626 213.49 171.436 213.49 Z" fill="#000000" fill-rule="nonzero" fill-opacity="1" /><path clip-path="url(#clip080)" d="M201.598 217.193 Q197.987 217.193 196.158 220.758 Q194.352 224.3 194.352 231.429 Q194.352 238.536 196.158 242.101 Q197.987 245.642 201.598 245.642 Q205.232 245.642 207.037 242.101 Q208.866 238.536 208.866 231.429 Q208.866 224.3 207.037 220.758 Q205.232 217.193 201.598 217.193 M201.598 213.49 Q207.408 213.49 210.463 218.096 Q213.542 222.679 213.542 231.429 Q213.542 240.156 210.463 244.763 Q207.408 249.346 201.598 249.346 Q195.787 249.346 192.709 244.763 Q189.653 240.156 189.653 231.429 Q189.653 222.679 192.709 218.096 Q195.787 213.49 201.598 213.49 Z" fill="#000000" fill-rule="nonzero" fill-opacity="1" /><path clip-path="url(#clip080)" d="M234.607 218.189 L222.801 236.638 L234.607 236.638 L234.607 218.189 M233.38 214.115 L239.259 214.115 L239.259 236.638 L244.19 236.638 L244.19 240.527 L239.259 240.527 L239.259 248.675 L234.607 248.675 L234.607 240.527 L219.005 240.527 L219.005 236.013 L233.38 214.115 Z" fill="#000000" fill-rule="nonzero" fill-opacity="1" /><path clip-path="url(#clip080)" d="M28.3562 910.937 L28.3562 904.73 L58.275 893.59 L28.3562 882.45 L28.3562 876.244 L64.0042 889.612 L64.0042 897.569 L28.3562 910.937 Z" fill="#000000" fill-rule="nonzero" fill-opacity="1" /><path clip-path="url(#clip080)" d="M46.0847 851.958 Q46.0847 859.056 47.7079 861.793 Q49.3312 864.531 53.2461 864.531 Q56.3653 864.531 58.2114 862.494 Q60.0256 860.425 60.0256 856.892 Q60.0256 852.022 56.5881 849.094 Q53.1188 846.134 47.3897 846.134 L46.0847 846.134 L46.0847 851.958 M43.6657 840.277 L64.0042 840.277 L64.0042 846.134 L58.5933 846.134 Q61.8398 848.139 63.3994 851.131 Q64.9272 854.123 64.9272 858.451 Q64.9272 863.926 61.8716 867.172 Q58.7843 870.387 53.6281 870.387 Q47.6125 870.387 44.5569 866.377 Q41.5014 862.334 41.5014 854.346 L41.5014 846.134 L40.9285 846.134 Q36.8862 846.134 34.6901 848.807 Q32.4621 851.449 32.4621 856.255 Q32.4621 859.311 33.1941 862.207 Q33.9262 865.104 35.3903 867.777 L29.9795 867.777 Q28.7381 864.562 28.1334 861.539 Q27.4968 858.515 27.4968 855.65 Q27.4968 847.916 31.5072 844.097 Q35.5176 840.277 43.6657 840.277 Z" fill="#000000" fill-rule="nonzero" fill-opacity="1" /><path clip-path="url(#clip080)" d="M33.8307 807.558 Q33.2578 808.544 33.0032 809.722 Q32.7167 810.868 32.7167 812.268 Q32.7167 817.233 35.9632 819.907 Q39.1779 822.549 45.2253 822.549 L64.0042 822.549 L64.0042 828.437 L28.3562 828.437 L28.3562 822.549 L33.8944 822.549 Q30.6479 820.703 29.0883 817.743 Q27.4968 814.783 27.4968 810.549 Q27.4968 809.945 27.5923 809.213 Q27.656 808.481 27.8151 807.589 L33.8307 807.558 Z" fill="#000000" fill-rule="nonzero" fill-opacity="1" /><path clip-path="url(#clip080)" d="M28.3562 801.415 L28.3562 795.558 L64.0042 795.558 L64.0042 801.415 L28.3562 801.415 M14.479 801.415 L14.479 795.558 L21.895 795.558 L21.895 801.415 L14.479 801.415 Z" fill="#000000" fill-rule="nonzero" fill-opacity="1" /><path clip-path="url(#clip080)" d="M46.0847 767.104 Q46.0847 774.201 47.7079 776.939 Q49.3312 779.676 53.2461 779.676 Q56.3653 779.676 58.2114 777.639 Q60.0256 775.57 60.0256 772.037 Q60.0256 767.167 56.5881 764.239 Q53.1188 761.279 47.3897 761.279 L46.0847 761.279 L46.0847 767.104 M43.6657 755.422 L64.0042 755.422 L64.0042 761.279 L58.5933 761.279 Q61.8398 763.284 63.3994 766.276 Q64.9272 769.268 64.9272 773.597 Q64.9272 779.071 61.8716 782.318 Q58.7843 785.532 53.6281 785.532 Q47.6125 785.532 44.5569 781.522 Q41.5014 777.48 41.5014 769.491 L41.5014 761.279 L40.9285 761.279 Q36.8862 761.279 34.6901 763.952 Q32.4621 766.594 32.4621 771.4 Q32.4621 774.456 33.1941 777.352 Q33.9262 780.249 35.3903 782.922 L29.9795 782.922 Q28.7381 779.708 28.1334 776.684 Q27.4968 773.66 27.4968 770.796 Q27.4968 763.061 31.5072 759.242 Q35.5176 755.422 43.6657 755.422 Z" fill="#000000" fill-rule="nonzero" fill-opacity="1" /><path clip-path="url(#clip080)" d="M42.4881 713.727 L64.0042 713.727 L64.0042 719.584 L42.679 719.584 Q37.6183 719.584 35.1038 721.557 Q32.5894 723.53 32.5894 727.477 Q32.5894 732.219 35.6131 734.957 Q38.6368 737.694 43.8567 737.694 L64.0042 737.694 L64.0042 743.582 L28.3562 743.582 L28.3562 737.694 L33.8944 737.694 Q30.6797 735.593 29.0883 732.761 Q27.4968 729.896 27.4968 726.172 Q27.4968 720.029 31.3163 716.878 Q35.1038 713.727 42.4881 713.727 Z" fill="#000000" fill-rule="nonzero" fill-opacity="1" /><path clip-path="url(#clip080)" d="M29.7248 676.392 L35.1993 676.392 Q33.8307 678.875 33.1623 681.389 Q32.4621 683.872 32.4621 686.418 Q32.4621 692.115 36.0905 695.267 Q39.6872 698.418 46.212 698.418 Q52.7369 698.418 56.3653 695.267 Q59.9619 692.115 59.9619 686.418 Q59.9619 683.872 59.2935 681.389 Q58.5933 678.875 57.2247 676.392 L62.6355 676.392 Q63.7814 678.843 64.3543 681.485 Q64.9272 684.095 64.9272 687.055 Q64.9272 695.107 59.8664 699.85 Q54.8057 704.592 46.212 704.592 Q37.491 704.592 32.4939 699.818 Q27.4968 695.012 27.4968 686.673 Q27.4968 683.967 28.0697 681.389 Q28.6108 678.811 29.7248 676.392 Z" fill="#000000" fill-rule="nonzero" fill-opacity="1" /><path clip-path="url(#clip080)" d="M44.7161 635.715 L47.5806 635.715 L47.5806 662.642 Q53.6281 662.26 56.8109 659.014 Q59.9619 655.735 59.9619 649.911 Q59.9619 646.537 59.1344 643.386 Q58.3069 640.203 56.6518 637.084 L62.1899 637.084 Q63.5267 640.235 64.227 643.545 Q64.9272 646.855 64.9272 650.261 Q64.9272 658.791 59.9619 663.788 Q54.9967 668.753 46.5303 668.753 Q37.7774 668.753 32.6531 664.043 Q27.4968 659.3 27.4968 651.279 Q27.4968 644.086 32.1438 639.917 Q36.7589 635.715 44.7161 635.715 M42.9973 641.572 Q38.1912 641.635 35.3266 644.277 Q32.4621 646.887 32.4621 651.216 Q32.4621 656.117 35.2312 659.077 Q38.0002 662.006 43.0292 662.451 L42.9973 641.572 Z" fill="#000000" fill-rule="nonzero" fill-opacity="1" /><path clip-path="url(#clip080)" d="M696.644 27.2059 L704.543 27.2059 L718.722 65.2844 L732.9 27.2059 L740.799 27.2059 L723.785 72.576 L713.658 72.576 L696.644 27.2059 Z" fill="#000000" fill-rule="nonzero" fill-opacity="1" /><path clip-path="url(#clip080)" d="M771.707 49.7694 Q762.674 49.7694 759.19 51.8354 Q755.706 53.9013 755.706 58.8839 Q755.706 62.8538 758.299 65.2034 Q760.932 67.5124 765.428 67.5124 Q771.626 67.5124 775.353 63.1374 Q779.121 58.7219 779.121 51.4303 L779.121 49.7694 L771.707 49.7694 M786.574 46.6907 L786.574 72.576 L779.121 72.576 L779.121 65.6895 Q776.568 69.8214 772.761 71.8063 Q768.953 73.7508 763.444 73.7508 Q756.476 73.7508 752.344 69.8619 Q748.253 65.9325 748.253 59.3701 Q748.253 51.7138 753.357 47.825 Q758.501 43.9361 768.669 43.9361 L779.121 43.9361 L779.121 43.2069 Q779.121 38.0623 775.718 35.2672 Q772.356 32.4315 766.239 32.4315 Q762.35 32.4315 758.663 33.3632 Q754.977 34.295 751.574 36.1584 L751.574 29.2718 Q755.666 27.692 759.514 26.9223 Q763.362 26.1121 767.008 26.1121 Q776.852 26.1121 781.713 31.2163 Q786.574 36.3204 786.574 46.6907 Z" fill="#000000" fill-rule="nonzero" fill-opacity="1" /><path clip-path="url(#clip080)" d="M828.217 34.1734 Q826.962 33.4443 825.463 33.1202 Q824.005 32.7556 822.222 32.7556 Q815.903 32.7556 812.5 36.8875 Q809.138 40.9789 809.138 48.6757 L809.138 72.576 L801.644 72.576 L801.644 27.2059 L809.138 27.2059 L809.138 34.2544 Q811.487 30.1225 815.255 28.1376 Q819.022 26.1121 824.41 26.1121 Q825.179 26.1121 826.111 26.2337 Q827.043 26.3147 828.177 26.5172 L828.217 34.1734 Z" fill="#000000" fill-rule="nonzero" fill-opacity="1" /><path clip-path="url(#clip080)" d="M836.036 27.2059 L843.489 27.2059 L843.489 72.576 L836.036 72.576 L836.036 27.2059 M836.036 9.54393 L843.489 9.54393 L843.489 18.9825 L836.036 18.9825 L836.036 9.54393 Z" fill="#000000" fill-rule="nonzero" fill-opacity="1" /><path clip-path="url(#clip080)" d="M879.704 49.7694 Q870.671 49.7694 867.187 51.8354 Q863.703 53.9013 863.703 58.8839 Q863.703 62.8538 866.296 65.2034 Q868.929 67.5124 873.426 67.5124 Q879.623 67.5124 883.35 63.1374 Q887.118 58.7219 887.118 51.4303 L887.118 49.7694 L879.704 49.7694 M894.571 46.6907 L894.571 72.576 L887.118 72.576 L887.118 65.6895 Q884.566 69.8214 880.758 71.8063 Q876.95 73.7508 871.441 73.7508 Q864.473 73.7508 860.341 69.8619 Q856.25 65.9325 856.25 59.3701 Q856.25 51.7138 861.354 47.825 Q866.499 43.9361 876.666 43.9361 L887.118 43.9361 L887.118 43.2069 Q887.118 38.0623 883.715 35.2672 Q880.353 32.4315 874.236 32.4315 Q870.347 32.4315 866.661 33.3632 Q862.974 34.295 859.571 36.1584 L859.571 29.2718 Q863.663 27.692 867.511 26.9223 Q871.36 26.1121 875.005 26.1121 Q884.849 26.1121 889.71 31.2163 Q894.571 36.3204 894.571 46.6907 Z" fill="#000000" fill-rule="nonzero" fill-opacity="1" /><path clip-path="url(#clip080)" d="M947.638 45.1919 L947.638 72.576 L940.184 72.576 L940.184 45.4349 Q940.184 38.994 937.673 35.7938 Q935.161 32.5936 930.138 32.5936 Q924.102 32.5936 920.619 36.4419 Q917.135 40.2903 917.135 46.9338 L917.135 72.576 L909.641 72.576 L909.641 27.2059 L917.135 27.2059 L917.135 34.2544 Q919.808 30.163 923.414 28.1376 Q927.06 26.1121 931.799 26.1121 Q939.617 26.1121 943.628 30.9732 Q947.638 35.7938 947.638 45.1919 Z" fill="#000000" fill-rule="nonzero" fill-opacity="1" /><path clip-path="url(#clip080)" d="M995.155 28.9478 L995.155 35.9153 Q991.996 34.1734 988.795 33.3227 Q985.636 32.4315 982.395 32.4315 Q975.144 32.4315 971.133 37.0496 Q967.123 41.6271 967.123 49.9314 Q967.123 58.2358 971.133 62.8538 Q975.144 67.4314 982.395 67.4314 Q985.636 67.4314 988.795 66.5807 Q991.996 65.6895 995.155 63.9476 L995.155 70.8341 Q992.036 72.2924 988.674 73.0216 Q985.352 73.7508 981.585 73.7508 Q971.336 73.7508 965.3 67.3098 Q959.264 60.8689 959.264 49.9314 Q959.264 38.832 965.341 32.472 Q971.457 26.1121 982.071 26.1121 Q985.514 26.1121 988.795 26.8413 Q992.077 27.5299 995.155 28.9478 Z" fill="#000000" fill-rule="nonzero" fill-opacity="1" /><path clip-path="url(#clip080)" d="M1046.93 48.0275 L1046.93 51.6733 L1012.66 51.6733 Q1013.14 59.3701 1017.27 63.421 Q1021.45 67.4314 1028.86 67.4314 Q1033.15 67.4314 1037.16 66.3781 Q1041.21 65.3249 1045.18 63.2184 L1045.18 70.267 Q1041.17 71.9684 1036.96 72.8596 Q1032.75 73.7508 1028.41 73.7508 Q1017.56 73.7508 1011.2 67.4314 Q1004.88 61.1119 1004.88 50.3365 Q1004.88 39.1965 1010.87 32.6746 Q1016.91 26.1121 1027.12 26.1121 Q1036.27 26.1121 1041.58 32.0264 Q1046.93 37.9003 1046.93 48.0275 M1039.47 45.84 Q1039.39 39.7232 1036.03 36.0774 Q1032.71 32.4315 1027.2 32.4315 Q1020.96 32.4315 1017.19 35.9558 Q1013.47 39.4801 1012.9 45.8805 L1039.47 45.84 Z" fill="#000000" fill-rule="nonzero" fill-opacity="1" /><path clip-path="url(#clip080)" d="M1106.15 49.7694 Q1097.12 49.7694 1093.63 51.8354 Q1090.15 53.9013 1090.15 58.8839 Q1090.15 62.8538 1092.74 65.2034 Q1095.37 67.5124 1099.87 67.5124 Q1106.07 67.5124 1109.8 63.1374 Q1113.56 58.7219 1113.56 51.4303 L1113.56 49.7694 L1106.15 49.7694 M1121.02 46.6907 L1121.02 72.576 L1113.56 72.576 L1113.56 65.6895 Q1111.01 69.8214 1107.2 71.8063 Q1103.4 73.7508 1097.89 73.7508 Q1090.92 73.7508 1086.79 69.8619 Q1082.7 65.9325 1082.7 59.3701 Q1082.7 51.7138 1087.8 47.825 Q1092.94 43.9361 1103.11 43.9361 L1113.56 43.9361 L1113.56 43.2069 Q1113.56 38.0623 1110.16 35.2672 Q1106.8 32.4315 1100.68 32.4315 Q1096.79 32.4315 1093.11 33.3632 Q1089.42 34.295 1086.02 36.1584 L1086.02 29.2718 Q1090.11 27.692 1093.96 26.9223 Q1097.81 26.1121 1101.45 26.1121 Q1111.29 26.1121 1116.16 31.2163 Q1121.02 36.3204 1121.02 46.6907 Z" fill="#000000" fill-rule="nonzero" fill-opacity="1" /><path clip-path="url(#clip080)" d="M1159.34 9.54393 L1159.34 15.7418 L1152.21 15.7418 Q1148.2 15.7418 1146.62 17.3622 Q1145.08 18.9825 1145.08 23.1955 L1145.08 27.2059 L1157.35 27.2059 L1157.35 32.9987 L1145.08 32.9987 L1145.08 72.576 L1137.59 72.576 L1137.59 32.9987 L1130.46 32.9987 L1130.46 27.2059 L1137.59 27.2059 L1137.59 24.0462 Q1137.59 16.471 1141.11 13.0277 Q1144.63 9.54393 1152.29 9.54393 L1159.34 9.54393 Z" fill="#000000" fill-rule="nonzero" fill-opacity="1" /><path clip-path="url(#clip080)" d="M1171.49 14.324 L1171.49 27.2059 L1186.84 27.2059 L1186.84 32.9987 L1171.49 32.9987 L1171.49 57.6282 Q1171.49 63.1779 1172.99 64.7578 Q1174.53 66.3376 1179.19 66.3376 L1186.84 66.3376 L1186.84 72.576 L1179.19 72.576 Q1170.56 72.576 1167.28 69.3758 Q1164 66.1351 1164 57.6282 L1164 32.9987 L1158.53 32.9987 L1158.53 27.2059 L1164 27.2059 L1164 14.324 L1171.49 14.324 Z" fill="#000000" fill-rule="nonzero" fill-opacity="1" /><path clip-path="url(#clip080)" d="M1235.45 48.0275 L1235.45 51.6733 L1201.18 51.6733 Q1201.67 59.3701 1205.8 63.421 Q1209.97 67.4314 1217.39 67.4314 Q1221.68 67.4314 1225.69 66.3781 Q1229.74 65.3249 1233.71 63.2184 L1233.71 70.267 Q1229.7 71.9684 1225.49 72.8596 Q1221.28 73.7508 1216.94 73.7508 Q1206.09 73.7508 1199.73 67.4314 Q1193.41 61.1119 1193.41 50.3365 Q1193.41 39.1965 1199.4 32.6746 Q1205.44 26.1121 1215.65 26.1121 Q1224.8 26.1121 1230.11 32.0264 Q1235.45 37.9003 1235.45 48.0275 M1228 45.84 Q1227.92 39.7232 1224.56 36.0774 Q1221.24 32.4315 1215.73 32.4315 Q1209.49 32.4315 1205.72 35.9558 Q1201.99 39.4801 1201.43 45.8805 L1228 45.84 Z" fill="#000000" fill-rule="nonzero" fill-opacity="1" /><path clip-path="url(#clip080)" d="M1273.98 34.1734 Q1272.72 33.4443 1271.22 33.1202 Q1269.77 32.7556 1267.98 32.7556 Q1261.66 32.7556 1258.26 36.8875 Q1254.9 40.9789 1254.9 48.6757 L1254.9 72.576 L1247.41 72.576 L1247.41 27.2059 L1254.9 27.2059 L1254.9 34.2544 Q1257.25 30.1225 1261.02 28.1376 Q1264.78 26.1121 1270.17 26.1121 Q1270.94 26.1121 1271.87 26.2337 Q1272.8 26.3147 1273.94 26.5172 L1273.98 34.1734 Z" fill="#000000" fill-rule="nonzero" fill-opacity="1" /><path clip-path="url(#clip080)" d="M1340.82 28.9478 L1340.82 35.9153 Q1337.66 34.1734 1334.46 33.3227 Q1331.3 32.4315 1328.06 32.4315 Q1320.81 32.4315 1316.8 37.0496 Q1312.79 41.6271 1312.79 49.9314 Q1312.79 58.2358 1316.8 62.8538 Q1320.81 67.4314 1328.06 67.4314 Q1331.3 67.4314 1334.46 66.5807 Q1337.66 65.6895 1340.82 63.9476 L1340.82 70.8341 Q1337.7 72.2924 1334.34 73.0216 Q1331.02 73.7508 1327.25 73.7508 Q1317 73.7508 1310.96 67.3098 Q1304.93 60.8689 1304.93 49.9314 Q1304.93 38.832 1311 32.472 Q1317.12 26.1121 1327.73 26.1121 Q1331.18 26.1121 1334.46 26.8413 Q1337.74 27.5299 1340.82 28.9478 Z" fill="#000000" fill-rule="nonzero" fill-opacity="1" /><path clip-path="url(#clip080)" d="M1371.36 32.4315 Q1365.37 32.4315 1361.88 37.1306 Q1358.4 41.7891 1358.4 49.9314 Q1358.4 58.0738 1361.84 62.7728 Q1365.33 67.4314 1371.36 67.4314 Q1377.32 67.4314 1380.8 62.7323 Q1384.29 58.0333 1384.29 49.9314 Q1384.29 41.8701 1380.8 37.1711 Q1377.32 32.4315 1371.36 32.4315 M1371.36 26.1121 Q1381.08 26.1121 1386.63 32.4315 Q1392.18 38.7509 1392.18 49.9314 Q1392.18 61.0714 1386.63 67.4314 Q1381.08 73.7508 1371.36 73.7508 Q1361.6 73.7508 1356.05 67.4314 Q1350.54 61.0714 1350.54 49.9314 Q1350.54 38.7509 1356.05 32.4315 Q1361.6 26.1121 1371.36 26.1121 Z" fill="#000000" fill-rule="nonzero" fill-opacity="1" /><path clip-path="url(#clip080)" d="M1425.16 49.7694 Q1416.13 49.7694 1412.64 51.8354 Q1409.16 53.9013 1409.16 58.8839 Q1409.16 62.8538 1411.75 65.2034 Q1414.38 67.5124 1418.88 67.5124 Q1425.08 67.5124 1428.8 63.1374 Q1432.57 58.7219 1432.57 51.4303 L1432.57 49.7694 L1425.16 49.7694 M1440.03 46.6907 L1440.03 72.576 L1432.57 72.576 L1432.57 65.6895 Q1430.02 69.8214 1426.21 71.8063 Q1422.4 73.7508 1416.89 73.7508 Q1409.93 73.7508 1405.8 69.8619 Q1401.7 65.9325 1401.7 59.3701 Q1401.7 51.7138 1406.81 47.825 Q1411.95 43.9361 1422.12 43.9361 L1432.57 43.9361 L1432.57 43.2069 Q1432.57 38.0623 1429.17 35.2672 Q1425.81 32.4315 1419.69 32.4315 Q1415.8 32.4315 1412.11 33.3632 Q1408.43 34.295 1405.03 36.1584 L1405.03 29.2718 Q1409.12 27.692 1412.97 26.9223 Q1416.81 26.1121 1420.46 26.1121 Q1430.3 26.1121 1435.16 31.2163 Q1440.03 36.3204 1440.03 46.6907 Z" fill="#000000" fill-rule="nonzero" fill-opacity="1" /><path clip-path="url(#clip080)" d="M1481.67 34.1734 Q1480.41 33.4443 1478.91 33.1202 Q1477.46 32.7556 1475.67 32.7556 Q1469.35 32.7556 1465.95 36.8875 Q1462.59 40.9789 1462.59 48.6757 L1462.59 72.576 L1455.09 72.576 L1455.09 27.2059 L1462.59 27.2059 L1462.59 34.2544 Q1464.94 30.1225 1468.71 28.1376 Q1472.47 26.1121 1477.86 26.1121 Q1478.63 26.1121 1479.56 26.2337 Q1480.49 26.3147 1481.63 26.5172 L1481.67 34.1734 Z" fill="#000000" fill-rule="nonzero" fill-opacity="1" /><path clip-path="url(#clip080)" d="M1518.41 28.5427 L1518.41 35.5912 Q1515.25 33.9709 1511.85 33.1607 Q1508.45 32.3505 1504.8 32.3505 Q1499.25 32.3505 1496.45 34.0519 Q1493.7 35.7533 1493.7 39.156 Q1493.7 41.7486 1495.68 43.2475 Q1497.67 44.7058 1503.67 46.0426 L1506.22 46.6097 Q1514.16 48.3111 1517.48 51.4303 Q1520.84 54.509 1520.84 60.0587 Q1520.84 66.3781 1515.82 70.0644 Q1510.84 73.7508 1502.09 73.7508 Q1498.44 73.7508 1494.47 73.0216 Q1490.54 72.3329 1486.17 70.9151 L1486.17 63.2184 Q1490.3 65.3654 1494.31 66.4591 Q1498.32 67.5124 1502.25 67.5124 Q1507.51 67.5124 1510.35 65.73 Q1513.18 63.9071 1513.18 60.6258 Q1513.18 57.5877 1511.12 55.9673 Q1509.09 54.3469 1502.17 52.8481 L1499.57 52.2405 Q1492.65 50.7821 1489.57 47.7845 Q1486.49 44.7463 1486.49 39.4801 Q1486.49 33.0797 1491.03 29.5959 Q1495.56 26.1121 1503.91 26.1121 Q1508.04 26.1121 1511.69 26.7198 Q1515.33 27.3274 1518.41 28.5427 Z" fill="#000000" fill-rule="nonzero" fill-opacity="1" /><path clip-path="url(#clip080)" d="M1571.52 48.0275 L1571.52 51.6733 L1537.25 51.6733 Q1537.73 59.3701 1541.87 63.421 Q1546.04 67.4314 1553.45 67.4314 Q1557.74 67.4314 1561.76 66.3781 Q1565.81 65.3249 1569.78 63.2184 L1569.78 70.267 Q1565.77 71.9684 1561.55 72.8596 Q1557.34 73.7508 1553.01 73.7508 Q1542.15 73.7508 1535.79 67.4314 Q1529.47 61.1119 1529.47 50.3365 Q1529.47 39.1965 1535.46 32.6746 Q1541.5 26.1121 1551.71 26.1121 Q1560.86 26.1121 1566.17 32.0264 Q1571.52 37.9003 1571.52 48.0275 M1564.06 45.84 Q1563.98 39.7232 1560.62 36.0774 Q1557.3 32.4315 1551.79 32.4315 Q1545.55 32.4315 1541.78 35.9558 Q1538.06 39.4801 1537.49 45.8805 L1564.06 45.84 Z" fill="#000000" fill-rule="nonzero" fill-opacity="1" /><path clip-path="url(#clip080)" d="M1639.98 49.3643 Q1639.98 41.2625 1636.62 36.8065 Q1633.29 32.3505 1627.26 32.3505 Q1621.26 32.3505 1617.9 36.8065 Q1614.58 41.2625 1614.58 49.3643 Q1614.58 57.4256 1617.9 61.8816 Q1621.26 66.3376 1627.26 66.3376 Q1633.29 66.3376 1636.62 61.8816 Q1639.98 57.4256 1639.98 49.3643 M1647.43 66.9452 Q1647.43 78.5308 1642.29 84.1616 Q1637.14 89.8329 1626.53 89.8329 Q1622.6 89.8329 1619.12 89.2252 Q1615.63 88.6581 1612.35 87.4428 L1612.35 80.1917 Q1615.63 81.9741 1618.83 82.8248 Q1622.03 83.6755 1625.35 83.6755 Q1632.69 83.6755 1636.33 79.8271 Q1639.98 76.0193 1639.98 68.282 L1639.98 64.5957 Q1637.67 68.6061 1634.06 70.5911 Q1630.46 72.576 1625.44 72.576 Q1617.09 72.576 1611.99 66.2161 Q1606.88 59.8562 1606.88 49.3643 Q1606.88 38.832 1611.99 32.472 Q1617.09 26.1121 1625.44 26.1121 Q1630.46 26.1121 1634.06 28.0971 Q1637.67 30.082 1639.98 34.0924 L1639.98 27.2059 L1647.43 27.2059 L1647.43 66.9452 Z" fill="#000000" fill-rule="nonzero" fill-opacity="1" /><path clip-path="url(#clip080)" d="M1689.08 34.1734 Q1687.82 33.4443 1686.32 33.1202 Q1684.86 32.7556 1683.08 32.7556 Q1676.76 32.7556 1673.36 36.8875 Q1670 40.9789 1670 48.6757 L1670 72.576 L1662.5 72.576 L1662.5 27.2059 L1670 27.2059 L1670 34.2544 Q1672.34 30.1225 1676.11 28.1376 Q1679.88 26.1121 1685.27 26.1121 Q1686.04 26.1121 1686.97 26.2337 Q1687.9 26.3147 1689.03 26.5172 L1689.08 34.1734 Z" fill="#000000" fill-rule="nonzero" fill-opacity="1" /><path clip-path="url(#clip080)" d="M1717.51 49.7694 Q1708.48 49.7694 1705 51.8354 Q1701.51 53.9013 1701.51 58.8839 Q1701.51 62.8538 1704.1 65.2034 Q1706.74 67.5124 1711.23 67.5124 Q1717.43 67.5124 1721.16 63.1374 Q1724.93 58.7219 1724.93 51.4303 L1724.93 49.7694 L1717.51 49.7694 M1732.38 46.6907 L1732.38 72.576 L1724.93 72.576 L1724.93 65.6895 Q1722.37 69.8214 1718.57 71.8063 Q1714.76 73.7508 1709.25 73.7508 Q1702.28 73.7508 1698.15 69.8619 Q1694.06 65.9325 1694.06 59.3701 Q1694.06 51.7138 1699.16 47.825 Q1704.31 43.9361 1714.47 43.9361 L1724.93 43.9361 L1724.93 43.2069 Q1724.93 38.0623 1721.52 35.2672 Q1718.16 32.4315 1712.04 32.4315 Q1708.15 32.4315 1704.47 33.3632 Q1700.78 34.295 1697.38 36.1584 L1697.38 29.2718 Q1701.47 27.692 1705.32 26.9223 Q1709.17 26.1121 1712.81 26.1121 Q1722.66 26.1121 1727.52 31.2163 Q1732.38 36.3204 1732.38 46.6907 Z" fill="#000000" fill-rule="nonzero" fill-opacity="1" /><path clip-path="url(#clip080)" d="M1747.73 27.2059 L1755.19 27.2059 L1755.19 72.576 L1747.73 72.576 L1747.73 27.2059 M1747.73 9.54393 L1755.19 9.54393 L1755.19 18.9825 L1747.73 18.9825 L1747.73 9.54393 Z" fill="#000000" fill-rule="nonzero" fill-opacity="1" /><path clip-path="url(#clip080)" d="M1808.5 45.1919 L1808.5 72.576 L1801.04 72.576 L1801.04 45.4349 Q1801.04 38.994 1798.53 35.7938 Q1796.02 32.5936 1791 32.5936 Q1784.96 32.5936 1781.48 36.4419 Q1777.99 40.2903 1777.99 46.9338 L1777.99 72.576 L1770.5 72.576 L1770.5 27.2059 L1777.99 27.2059 L1777.99 34.2544 Q1780.67 30.163 1784.27 28.1376 Q1787.92 26.1121 1792.66 26.1121 Q1800.47 26.1121 1804.49 30.9732 Q1808.5 35.7938 1808.5 45.1919 Z" fill="#000000" fill-rule="nonzero" fill-opacity="1" /><path clip-path="url(#clip080)" d="M1823.36 27.2059 L1830.82 27.2059 L1830.82 72.576 L1823.36 72.576 L1823.36 27.2059 M1823.36 9.54393 L1830.82 9.54393 L1830.82 18.9825 L1823.36 18.9825 L1823.36 9.54393 Z" fill="#000000" fill-rule="nonzero" fill-opacity="1" /><path clip-path="url(#clip080)" d="M1884.13 45.1919 L1884.13 72.576 L1876.67 72.576 L1876.67 45.4349 Q1876.67 38.994 1874.16 35.7938 Q1871.65 32.5936 1866.63 32.5936 Q1860.59 32.5936 1857.11 36.4419 Q1853.62 40.2903 1853.62 46.9338 L1853.62 72.576 L1846.13 72.576 L1846.13 27.2059 L1853.62 27.2059 L1853.62 34.2544 Q1856.3 30.163 1859.9 28.1376 Q1863.55 26.1121 1868.29 26.1121 Q1876.11 26.1121 1880.12 30.9732 Q1884.13 35.7938 1884.13 45.1919 Z" fill="#000000" fill-rule="nonzero" fill-opacity="1" /><path clip-path="url(#clip080)" d="M1928.85 49.3643 Q1928.85 41.2625 1925.49 36.8065 Q1922.16 32.3505 1916.13 32.3505 Q1910.13 32.3505 1906.77 36.8065 Q1903.45 41.2625 1903.45 49.3643 Q1903.45 57.4256 1906.77 61.8816 Q1910.13 66.3376 1916.13 66.3376 Q1922.16 66.3376 1925.49 61.8816 Q1928.85 57.4256 1928.85 49.3643 M1936.3 66.9452 Q1936.3 78.5308 1931.16 84.1616 Q1926.01 89.8329 1915.4 89.8329 Q1911.47 89.8329 1907.99 89.2252 Q1904.5 88.6581 1901.22 87.4428 L1901.22 80.1917 Q1904.5 81.9741 1907.7 82.8248 Q1910.9 83.6755 1914.22 83.6755 Q1921.56 83.6755 1925.2 79.8271 Q1928.85 76.0193 1928.85 68.282 L1928.85 64.5957 Q1926.54 68.6061 1922.93 70.5911 Q1919.33 72.576 1914.31 72.576 Q1905.96 72.576 1900.86 66.2161 Q1895.75 59.8562 1895.75 49.3643 Q1895.75 38.832 1900.86 32.472 Q1905.96 26.1121 1914.31 26.1121 Q1919.33 26.1121 1922.93 28.0971 Q1926.54 30.082 1928.85 34.0924 L1928.85 27.2059 L1936.3 27.2059 L1936.3 66.9452 Z" fill="#000000" fill-rule="nonzero" fill-opacity="1" /><polyline clip-path="url(#clip082)" style="stroke:#009af9; stroke-linecap:round; stroke-linejoin:round; stroke-width:8; stroke-opacity:1; fill:none" points="338.848,744.752 378.149,766.774 427.276,795.803 525.53,851.017 820.291,981.251 1311.56,1125.13 1802.83,1240.88 2294.1,1310.4 "/>
<path clip-path="url(#clip082)" d="M338.848 760.752 L327.536 756.064 L322.848 744.752 L327.536 733.44 L338.848 728.752 L350.16 733.44 L354.848 744.752 L350.16 756.064 Z" fill="#009af9" fill-rule="evenodd" fill-opacity="1" stroke="#000000" stroke-opacity="1" stroke-width="3.2"/>
<path clip-path="url(#clip082)" d="M378.149 782.774 L366.837 778.086 L362.149 766.774 L366.837 755.462 L378.149 750.774 L389.461 755.462 L394.149 766.774 L389.461 778.086 Z" fill="#009af9" fill-rule="evenodd" fill-opacity="1" stroke="#000000" stroke-opacity="1" stroke-width="3.2"/>
<path clip-path="url(#clip082)" d="M427.276 811.803 L415.964 807.115 L411.276 795.803 L415.964 784.491 L427.276 779.803 L438.588 784.491 L443.276 795.803 L438.588 807.115 Z" fill="#009af9" fill-rule="evenodd" fill-opacity="1" stroke="#000000" stroke-opacity="1" stroke-width="3.2"/>
<path clip-path="url(#clip082)" d="M525.53 867.017 L514.218 862.329 L509.53 851.017 L514.218 839.705 L525.53 835.017 L536.842 839.705 L541.53 851.017 L536.842 862.329 Z" fill="#009af9" fill-rule="evenodd" fill-opacity="1" stroke="#000000" stroke-opacity="1" stroke-width="3.2"/>
<path clip-path="url(#clip082)" d="M820.291 997.251 L808.979 992.563 L804.291 981.251 L808.979 969.939 L820.291 965.251 L831.603 969.939 L836.291 981.251 L831.603 992.563 Z" fill="#009af9" fill-rule="evenodd" fill-opacity="1" stroke="#000000" stroke-opacity="1" stroke-width="3.2"/>
<path clip-path="url(#clip082)" d="M1311.56 1141.13 L1300.25 1136.45 L1295.56 1125.13 L1300.25 1113.82 L1311.56 1109.13 L1322.87 1113.82 L1327.56 1125.13 L1322.87 1136.45 Z" fill="#009af9" fill-rule="evenodd" fill-opacity="1" stroke="#000000" stroke-opacity="1" stroke-width="3.2"/>
<path clip-path="url(#clip082)" d="M1802.83 1256.88 L1791.52 1252.2 L1786.83 1240.88 L1791.52 1229.57 L1802.83 1224.88 L1814.14 1229.57 L1818.83 1240.88 L1814.14 1252.2 Z" fill="#009af9" fill-rule="evenodd" fill-opacity="1" stroke="#000000" stroke-opacity="1" stroke-width="3.2"/>
<path clip-path="url(#clip082)" d="M2294.1 1326.4 L2282.79 1321.72 L2278.1 1310.4 L2282.79 1299.09 L2294.1 1294.4 L2305.41 1299.09 L2310.1 1310.4 L2305.41 1321.72 Z" fill="#009af9" fill-rule="evenodd" fill-opacity="1" stroke="#000000" stroke-opacity="1" stroke-width="3.2"/>
<polyline clip-path="url(#clip082)" style="stroke:#e26f46; stroke-linecap:round; stroke-linejoin:round; stroke-width:8; stroke-opacity:1; fill:none" points="338.848,160.256 378.149,391.381 427.276,560.784 525.53,756.321 820.291,1029.32 1311.56,1213.78 1802.83,1322.88 2294.1,1386.4 "/>
<path clip-path="url(#clip082)" d="M338.848 176.256 L327.536 171.568 L322.848 160.256 L327.536 148.944 L338.848 144.256 L350.16 148.944 L354.848 160.256 L350.16 171.568 Z" fill="#e26f46" fill-rule="evenodd" fill-opacity="1" stroke="#000000" stroke-opacity="1" stroke-width="3.2"/>
<path clip-path="url(#clip082)" d="M378.149 407.381 L366.837 402.693 L362.149 391.381 L366.837 380.069 L378.149 375.381 L389.461 380.069 L394.149 391.381 L389.461 402.693 Z" fill="#e26f46" fill-rule="evenodd" fill-opacity="1" stroke="#000000" stroke-opacity="1" stroke-width="3.2"/>
<path clip-path="url(#clip082)" d="M427.276 576.784 L415.964 572.096 L411.276 560.784 L415.964 549.472 L427.276 544.784 L438.588 549.472 L443.276 560.784 L438.588 572.096 Z" fill="#e26f46" fill-rule="evenodd" fill-opacity="1" stroke="#000000" stroke-opacity="1" stroke-width="3.2"/>
<path clip-path="url(#clip082)" d="M525.53 772.321 L514.218 767.633 L509.53 756.321 L514.218 745.009 L525.53 740.321 L536.842 745.009 L541.53 756.321 L536.842 767.633 Z" fill="#e26f46" fill-rule="evenodd" fill-opacity="1" stroke="#000000" stroke-opacity="1" stroke-width="3.2"/>
<path clip-path="url(#clip082)" d="M820.291 1045.32 L808.979 1040.63 L804.291 1029.32 L808.979 1018.01 L820.291 1013.32 L831.603 1018.01 L836.291 1029.32 L831.603 1040.63 Z" fill="#e26f46" fill-rule="evenodd" fill-opacity="1" stroke="#000000" stroke-opacity="1" stroke-width="3.2"/>
<path clip-path="url(#clip082)" d="M1311.56 1229.78 L1300.25 1225.09 L1295.56 1213.78 L1300.25 1202.47 L1311.56 1197.78 L1322.87 1202.47 L1327.56 1213.78 L1322.87 1225.09 Z" fill="#e26f46" fill-rule="evenodd" fill-opacity="1" stroke="#000000" stroke-opacity="1" stroke-width="3.2"/>
<path clip-path="url(#clip082)" d="M1802.83 1338.88 L1791.52 1334.19 L1786.83 1322.88 L1791.52 1311.57 L1802.83 1306.88 L1814.14 1311.57 L1818.83 1322.88 L1814.14 1334.19 Z" fill="#e26f46" fill-rule="evenodd" fill-opacity="1" stroke="#000000" stroke-opacity="1" stroke-width="3.2"/>
<path clip-path="url(#clip082)" d="M2294.1 1402.4 L2282.79 1397.71 L2278.1 1386.4 L2282.79 1375.08 L2294.1 1370.4 L2305.41 1375.08 L2310.1 1386.4 L2305.41 1397.71 Z" fill="#e26f46" fill-rule="evenodd" fill-opacity="1" stroke="#000000" stroke-opacity="1" stroke-width="3.2"/>
<path clip-path="url(#clip080)" d="M1766.09 322.316 L2283.67 322.316 L2283.67 166.796 L1766.09 166.796  Z" fill="#ffffff" fill-rule="evenodd" fill-opacity="1"/>
<polyline clip-path="url(#clip080)" style="stroke:#000000; stroke-linecap:round; stroke-linejoin:round; stroke-width:4; stroke-opacity:1; fill:none" points="1766.09,322.316 2283.67,322.316 2283.67,166.796 1766.09,166.796 1766.09,322.316 "/>
<polyline clip-path="url(#clip080)" style="stroke:#009af9; stroke-linecap:round; stroke-linejoin:round; stroke-width:8; stroke-opacity:1; fill:none" points="1789.12,218.636 1927.29,218.636 "/>
<path clip-path="url(#clip080)" d="M1858.21 239.958 L1843.13 233.711 L1836.88 218.636 L1843.13 203.561 L1858.21 197.313 L1873.28 203.561 L1879.53 218.636 L1873.28 233.711 Z" fill="#009af9" fill-rule="evenodd" fill-opacity="1" stroke="#000000" stroke-opacity="1" stroke-width="4.55111"/>
<path clip-path="url(#clip080)" d="M1972.03 220.268 L1972.03 235.916 L1967.77 235.916 L1967.77 220.407 Q1967.77 216.726 1966.34 214.897 Q1964.9 213.069 1962.03 213.069 Q1958.58 213.069 1956.59 215.268 Q1954.6 217.467 1954.6 221.263 L1954.6 235.916 L1950.32 235.916 L1950.32 209.99 L1954.6 209.99 L1954.6 214.018 Q1956.13 211.68 1958.19 210.522 Q1960.27 209.365 1962.98 209.365 Q1967.45 209.365 1969.74 212.143 Q1972.03 214.897 1972.03 220.268 Z" fill="#000000" fill-rule="nonzero" fill-opacity="1" /><path clip-path="url(#clip080)" d="M1990.57 212.976 Q1987.15 212.976 1985.16 215.661 Q1983.17 218.323 1983.17 222.976 Q1983.17 227.629 1985.13 230.314 Q1987.12 232.976 1990.57 232.976 Q1993.98 232.976 1995.97 230.291 Q1997.96 227.606 1997.96 222.976 Q1997.96 218.37 1995.97 215.684 Q1993.98 212.976 1990.57 212.976 M1990.57 209.365 Q1996.13 209.365 1999.3 212.976 Q2002.47 216.587 2002.47 222.976 Q2002.47 229.342 1999.3 232.976 Q1996.13 236.587 1990.57 236.587 Q1985 236.587 1981.82 232.976 Q1978.68 229.342 1978.68 222.976 Q1978.68 216.587 1981.82 212.976 Q1985 209.365 1990.57 209.365 Z" fill="#000000" fill-rule="nonzero" fill-opacity="1" /><path clip-path="url(#clip080)" d="M2044.79 214.967 Q2046.38 212.096 2048.61 210.731 Q2050.83 209.365 2053.84 209.365 Q2057.89 209.365 2060.09 212.212 Q2062.29 215.036 2062.29 220.268 L2062.29 235.916 L2058 235.916 L2058 220.407 Q2058 216.68 2056.68 214.874 Q2055.37 213.069 2052.66 213.069 Q2049.35 213.069 2047.43 215.268 Q2045.5 217.467 2045.5 221.263 L2045.5 235.916 L2041.22 235.916 L2041.22 220.407 Q2041.22 216.657 2039.9 214.874 Q2038.58 213.069 2035.83 213.069 Q2032.56 213.069 2030.64 215.291 Q2028.72 217.49 2028.72 221.263 L2028.72 235.916 L2024.44 235.916 L2024.44 209.99 L2028.72 209.99 L2028.72 214.018 Q2030.18 211.633 2032.22 210.499 Q2034.25 209.365 2037.06 209.365 Q2039.88 209.365 2041.85 210.8 Q2043.84 212.235 2044.79 214.967 Z" fill="#000000" fill-rule="nonzero" fill-opacity="1" /><path clip-path="url(#clip080)" d="M2092.96 221.888 L2092.96 223.971 L2073.37 223.971 Q2073.65 228.369 2076.01 230.684 Q2078.4 232.976 2082.63 232.976 Q2085.09 232.976 2087.38 232.374 Q2089.69 231.772 2091.96 230.569 L2091.96 234.596 Q2089.67 235.568 2087.26 236.078 Q2084.86 236.587 2082.38 236.587 Q2076.18 236.587 2072.54 232.976 Q2068.93 229.365 2068.93 223.207 Q2068.93 216.842 2072.36 213.115 Q2075.8 209.365 2081.64 209.365 Q2086.87 209.365 2089.9 212.745 Q2092.96 216.101 2092.96 221.888 M2088.7 220.638 Q2088.65 217.143 2086.73 215.059 Q2084.83 212.976 2081.68 212.976 Q2078.12 212.976 2075.97 214.99 Q2073.84 217.004 2073.51 220.661 L2088.7 220.638 Z" fill="#000000" fill-rule="nonzero" fill-opacity="1" /><path clip-path="url(#clip080)" d="M2120.13 214.967 Q2121.73 212.096 2123.95 210.731 Q2126.17 209.365 2129.18 209.365 Q2133.24 209.365 2135.43 212.212 Q2137.63 215.036 2137.63 220.268 L2137.63 235.916 L2133.35 235.916 L2133.35 220.407 Q2133.35 216.68 2132.03 214.874 Q2130.71 213.069 2128 213.069 Q2124.69 213.069 2122.77 215.268 Q2120.85 217.467 2120.85 221.263 L2120.85 235.916 L2116.57 235.916 L2116.57 220.407 Q2116.57 216.657 2115.25 214.874 Q2113.93 213.069 2111.18 213.069 Q2107.91 213.069 2105.99 215.291 Q2104.07 217.49 2104.07 221.263 L2104.07 235.916 L2099.79 235.916 L2099.79 209.99 L2104.07 209.99 L2104.07 214.018 Q2105.53 211.633 2107.56 210.499 Q2109.6 209.365 2112.4 209.365 Q2115.23 209.365 2117.19 210.8 Q2119.18 212.235 2120.13 214.967 Z" fill="#000000" fill-rule="nonzero" fill-opacity="1" /><path clip-path="url(#clip080)" d="M2156.17 212.976 Q2152.75 212.976 2150.76 215.661 Q2148.77 218.323 2148.77 222.976 Q2148.77 227.629 2150.74 230.314 Q2152.73 232.976 2156.17 232.976 Q2159.58 232.976 2161.57 230.291 Q2163.56 227.606 2163.56 222.976 Q2163.56 218.37 2161.57 215.684 Q2159.58 212.976 2156.17 212.976 M2156.17 209.365 Q2161.73 209.365 2164.9 212.976 Q2168.07 216.587 2168.07 222.976 Q2168.07 229.342 2164.9 232.976 Q2161.73 236.587 2156.17 236.587 Q2150.6 236.587 2147.42 232.976 Q2144.28 229.342 2144.28 222.976 Q2144.28 216.587 2147.42 212.976 Q2150.6 209.365 2156.17 209.365 Z" fill="#000000" fill-rule="nonzero" fill-opacity="1" /><path clip-path="url(#clip080)" d="M2190.16 213.971 Q2189.44 213.555 2188.58 213.37 Q2187.75 213.161 2186.73 213.161 Q2183.12 213.161 2181.17 215.522 Q2179.25 217.86 2179.25 222.258 L2179.25 235.916 L2174.97 235.916 L2174.97 209.99 L2179.25 209.99 L2179.25 214.018 Q2180.6 211.657 2182.75 210.522 Q2184.9 209.365 2187.98 209.365 Q2188.42 209.365 2188.95 209.434 Q2189.48 209.481 2190.13 209.596 L2190.16 213.971 Z" fill="#000000" fill-rule="nonzero" fill-opacity="1" /><path clip-path="url(#clip080)" d="M2205.41 238.323 Q2203.61 242.953 2201.89 244.365 Q2200.18 245.777 2197.31 245.777 L2193.91 245.777 L2193.91 242.212 L2196.41 242.212 Q2198.17 242.212 2199.14 241.379 Q2200.11 240.545 2201.29 237.443 L2202.05 235.499 L2191.57 209.99 L2196.08 209.99 L2204.18 230.268 L2212.29 209.99 L2216.8 209.99 L2205.41 238.323 Z" fill="#000000" fill-rule="nonzero" fill-opacity="1" /><polyline clip-path="url(#clip080)" style="stroke:#e26f46; stroke-linecap:round; stroke-linejoin:round; stroke-width:8; stroke-opacity:1; fill:none" points="1789.12,270.476 1927.29,270.476 "/>
<path clip-path="url(#clip080)" d="M1858.21 291.798 L1843.13 285.551 L1836.88 270.476 L1843.13 255.401 L1858.21 249.153 L1873.28 255.401 L1879.53 270.476 L1873.28 285.551 Z" fill="#e26f46" fill-rule="evenodd" fill-opacity="1" stroke="#000000" stroke-opacity="1" stroke-width="4.55111"/>
<path clip-path="url(#clip080)" d="M1950.32 261.83 L1954.58 261.83 L1959.9 282.061 L1965.2 261.83 L1970.23 261.83 L1975.55 282.061 L1980.85 261.83 L1985.11 261.83 L1978.33 287.756 L1973.31 287.756 L1967.73 266.506 L1962.12 287.756 L1957.1 287.756 L1950.32 261.83 Z" fill="#000000" fill-rule="nonzero" fill-opacity="1" /><path clip-path="url(#clip080)" d="M1991.57 261.83 L1995.83 261.83 L1995.83 287.756 L1991.57 287.756 L1991.57 261.83 M1991.57 251.737 L1995.83 251.737 L1995.83 257.131 L1991.57 257.131 L1991.57 251.737 Z" fill="#000000" fill-rule="nonzero" fill-opacity="1" /><path clip-path="url(#clip080)" d="M2008.95 254.469 L2008.95 261.83 L2017.73 261.83 L2017.73 265.14 L2008.95 265.14 L2008.95 279.214 Q2008.95 282.385 2009.81 283.288 Q2010.69 284.191 2013.35 284.191 L2017.73 284.191 L2017.73 287.756 L2013.35 287.756 Q2008.42 287.756 2006.55 285.927 Q2004.67 284.075 2004.67 279.214 L2004.67 265.14 L2001.55 265.14 L2001.55 261.83 L2004.67 261.83 L2004.67 254.469 L2008.95 254.469 Z" fill="#000000" fill-rule="nonzero" fill-opacity="1" /><path clip-path="url(#clip080)" d="M2044.88 272.108 L2044.88 287.756 L2040.62 287.756 L2040.62 272.247 Q2040.62 268.566 2039.18 266.737 Q2037.75 264.909 2034.88 264.909 Q2031.43 264.909 2029.44 267.108 Q2027.45 269.307 2027.45 273.103 L2027.45 287.756 L2023.17 287.756 L2023.17 251.737 L2027.45 251.737 L2027.45 265.858 Q2028.98 263.52 2031.04 262.362 Q2033.12 261.205 2035.83 261.205 Q2040.3 261.205 2042.59 263.983 Q2044.88 266.737 2044.88 272.108 Z" fill="#000000" fill-rule="nonzero" fill-opacity="1" /><path clip-path="url(#clip080)" d="M2088.63 266.807 Q2090.23 263.936 2092.45 262.571 Q2094.67 261.205 2097.68 261.205 Q2101.73 261.205 2103.93 264.052 Q2106.13 266.876 2106.13 272.108 L2106.13 287.756 L2101.85 287.756 L2101.85 272.247 Q2101.85 268.52 2100.53 266.714 Q2099.21 264.909 2096.5 264.909 Q2093.19 264.909 2091.27 267.108 Q2089.35 269.307 2089.35 273.103 L2089.35 287.756 L2085.06 287.756 L2085.06 272.247 Q2085.06 268.497 2083.74 266.714 Q2082.43 264.909 2079.67 264.909 Q2076.41 264.909 2074.49 267.131 Q2072.56 269.33 2072.56 273.103 L2072.56 287.756 L2068.28 287.756 L2068.28 261.83 L2072.56 261.83 L2072.56 265.858 Q2074.02 263.473 2076.06 262.339 Q2078.1 261.205 2080.9 261.205 Q2083.72 261.205 2085.69 262.64 Q2087.68 264.075 2088.63 266.807 Z" fill="#000000" fill-rule="nonzero" fill-opacity="1" /><path clip-path="url(#clip080)" d="M2136.8 273.728 L2136.8 275.811 L2117.22 275.811 Q2117.49 280.209 2119.86 282.524 Q2122.24 284.816 2126.48 284.816 Q2128.93 284.816 2131.22 284.214 Q2133.54 283.612 2135.8 282.409 L2135.8 286.436 Q2133.51 287.408 2131.11 287.918 Q2128.7 288.427 2126.22 288.427 Q2120.02 288.427 2116.38 284.816 Q2112.77 281.205 2112.77 275.047 Q2112.77 268.682 2116.2 264.955 Q2119.65 261.205 2125.48 261.205 Q2130.71 261.205 2133.74 264.585 Q2136.8 267.941 2136.8 273.728 M2132.54 272.478 Q2132.49 268.983 2130.57 266.899 Q2128.67 264.816 2125.53 264.816 Q2121.96 264.816 2119.81 266.83 Q2117.68 268.844 2117.36 272.501 L2132.54 272.478 Z" fill="#000000" fill-rule="nonzero" fill-opacity="1" /><path clip-path="url(#clip080)" d="M2163.98 266.807 Q2165.57 263.936 2167.8 262.571 Q2170.02 261.205 2173.03 261.205 Q2177.08 261.205 2179.28 264.052 Q2181.48 266.876 2181.48 272.108 L2181.48 287.756 L2177.19 287.756 L2177.19 272.247 Q2177.19 268.52 2175.87 266.714 Q2174.55 264.909 2171.85 264.909 Q2168.54 264.909 2166.61 267.108 Q2164.69 269.307 2164.69 273.103 L2164.69 287.756 L2160.41 287.756 L2160.41 272.247 Q2160.41 268.497 2159.09 266.714 Q2157.77 264.909 2155.02 264.909 Q2151.75 264.909 2149.83 267.131 Q2147.91 269.33 2147.91 273.103 L2147.91 287.756 L2143.63 287.756 L2143.63 261.83 L2147.91 261.83 L2147.91 265.858 Q2149.37 263.473 2151.41 262.339 Q2153.44 261.205 2156.24 261.205 Q2159.07 261.205 2161.04 262.64 Q2163.03 264.075 2163.98 266.807 Z" fill="#000000" fill-rule="nonzero" fill-opacity="1" /><path clip-path="url(#clip080)" d="M2200.02 264.816 Q2196.59 264.816 2194.6 267.501 Q2192.61 270.163 2192.61 274.816 Q2192.61 279.469 2194.58 282.154 Q2196.57 284.816 2200.02 284.816 Q2203.42 284.816 2205.41 282.131 Q2207.4 279.446 2207.4 274.816 Q2207.4 270.21 2205.41 267.524 Q2203.42 264.816 2200.02 264.816 M2200.02 261.205 Q2205.57 261.205 2208.74 264.816 Q2211.92 268.427 2211.92 274.816 Q2211.92 281.182 2208.74 284.816 Q2205.57 288.427 2200.02 288.427 Q2194.44 288.427 2191.27 284.816 Q2188.12 281.182 2188.12 274.816 Q2188.12 268.427 2191.27 264.816 Q2194.44 261.205 2200.02 261.205 Z" fill="#000000" fill-rule="nonzero" fill-opacity="1" /><path clip-path="url(#clip080)" d="M2234 265.811 Q2233.28 265.395 2232.42 265.21 Q2231.59 265.001 2230.57 265.001 Q2226.96 265.001 2225.02 267.362 Q2223.1 269.7 2223.1 274.098 L2223.1 287.756 L2218.81 287.756 L2218.81 261.83 L2223.1 261.83 L2223.1 265.858 Q2224.44 263.497 2226.59 262.362 Q2228.74 261.205 2231.82 261.205 Q2232.26 261.205 2232.79 261.274 Q2233.33 261.321 2233.98 261.436 L2234 265.811 Z" fill="#000000" fill-rule="nonzero" fill-opacity="1" /><path clip-path="url(#clip080)" d="M2249.25 290.163 Q2247.45 294.793 2245.73 296.205 Q2244.02 297.617 2241.15 297.617 L2237.75 297.617 L2237.75 294.052 L2240.25 294.052 Q2242.01 294.052 2242.98 293.219 Q2243.95 292.385 2245.13 289.283 L2245.9 287.339 L2235.41 261.83 L2239.92 261.83 L2248.03 282.108 L2256.13 261.83 L2260.64 261.83 L2249.25 290.163 Z" fill="#000000" fill-rule="nonzero" fill-opacity="1" /></svg>
